<!-- Do not put any blank lines, or all hell will break loose! -->
<svg viewBox="0 0 480 220" preserveAspectRatio="xMidYMid meet" xmlns="http://www.w3.org/2000/svg">
  <defs>
    <style type="text/css"><![CDATA[
      text {
        fill: var(--fg);
        dominant-baseline: middle;
      }
      .centered { text-anchor: middle; }
      .right    { text-anchor: end; }
      rect, path, use {
        stroke: var(--fg);
        fill: var(--fg);
      }
      .inverted {
        stroke: var(--bg);
        fill: var(--bg);
      }
      .unfilled {
        fill: none !important;
      }
      .no-stroke {
        stroke: none !important;
      }
    ]]></style>
    <path d="M 0,-5
             v 10
             l 10,-5
             z" id="arrow-head"/>
  </defs>
  <text x="85" y="36" class="right">Channel 1</text>
  <rect x="95" y="15" width="40" height="40"/>
  <path d="M 95,45
           h 10
           v -20
           h 10
           v 20
           h 10
           v -20
           h 10" class="inverted unfilled"/>
  <text x="85" y="86" class="right">Channel 2</text>
  <rect x="95" y="65" width="40" height="40"/>
  <path d="M 95,95
           h 10
           v -20
           h 10
           v 20
           h 10
           v -20
           h 10" class="inverted unfilled"/>
  <text x="85" y="136" class="right">Channel 3</text>
  <rect x="95" y="115" width="40" height="40"/>
  <path d="M 95,141
           h 2
           v -2
           h 2
           v -3
           h 2
           v -3
           h 2
           v -3
           h 2
           v -2
           h 2
           v -1
           h 2
           v 1
           h 2
           v 2
           h 2
           v 5
           h 2
           v 4
           h 2
           v 2
           h 2
           v 1
           h 4
           v -10
           h 2
           v -5
           h 2
           v 15
           h 2
           v -14
           h 2
           v 7
           h 2
           v 4
           h 2
           v 2
           h 4
           v 1
           h 4
           v -1
           h 2
           v -1
           h 2
           v -2
           h 2
           v -2
           h 2
           v -3
           h 2
           v -2
           h 2
           v -2
           h 2" class="inverted unfilled"/>
  <text x="85" y="186" class="right">Channel 4</text>
  <rect x="95" y="165" width="40" height="40"/>
  <path d="M 95,195
           h 2
           v -20
           h 2
           v 20
           h 5
           v -20
           h 2
           v 20
           h 1
           v -20
           h 6
           v 20
           h 3
           v -20
           h 2
           v 20
           h 1
           v -20
           h 2
           v 20
           h 5
           v -20
           h 1
           v 20
           h 4
           v -20
           h 2
           v 20
           h 1
           v -20
           h 1" class="inverted unfilled"/>
  <path d="M 135,35
           h 30
           m -30,50
           h 30
           m -30,50
           h 30
           m -30,50
           h 30
           v -150
           m 0,75
           h 30" class="unfilled"/>
  <use x="185" y="110" href="#arrow-head"/>
  <rect x="195" y="95" width="60" height="30"/>
  <text x="225" y="110" class="centered inverted no-stroke">Mixer</text>
  <path d="M 255,102
           h 30" class="unfilled"/>
  <use x="275" y="102" href="#arrow-head"/>
  <path d="M 255,118
           h 30" class="unfilled"/>
  <use x="275" y="118" href="#arrow-head"/>
  <rect x="285" y="95" width="80" height="30"/>
  <text x="325" y="110" class="centered inverted no-stroke">Amplifier</text>
  <path d="M 365,102
           h 30" class="unfilled"/>
  <use x="385" y="102" href="#arrow-head"/>
  <path d="M 365,118
           h 30" class="unfilled"/>
  <use x="385" y="118" href="#arrow-head"/>
  <rect x="395" y="95" width="80" height="30"/>
  <text x="435" y="110" class="centered inverted no-stroke">Output</text>
</svg>
