<?xml version="1.0" encoding="UTF-8"?><svg xmlns="http://www.w3.org/2000/svg" xmlns:xlink="http://www.w3.org/1999/xlink" fill-opacity="1" color-rendering="auto" color-interpolation="auto" text-rendering="auto" stroke="black" stroke-linecap="square" width="520" stroke-miterlimit="10" shape-rendering="auto" stroke-opacity="1" fill="black" stroke-dasharray="none" font-weight="normal" stroke-width="1" height="548" font-family="'Dialog'" font-style="normal" stroke-linejoin="miter" font-size="12px" stroke-dashoffset="0" image-rendering="auto">
  <!--Generated by ySVG 2.5-->
  <defs id="genericDefs"/>
  <g>
    <defs id="defs1">
      <clipPath clipPathUnits="userSpaceOnUse" id="clipPath1">
        <path d="M0 0 L520 0 L520 548 L0 548 L0 0 Z"/>
      </clipPath>
      <clipPath clipPathUnits="userSpaceOnUse" id="clipPath2">
        <path d="M300 30 L820 30 L820 578 L300 578 L300 30 Z"/>
      </clipPath>
    </defs>
    <g fill="white" text-rendering="geometricPrecision" shape-rendering="geometricPrecision" transform="translate(-300,-30)" stroke="white">
      <rect x="300" width="520" height="548" y="30" clip-path="url(#clipPath2)" stroke="none"/>
    </g>
    <g fill="rgb(204,255,255)" text-rendering="geometricPrecision" shape-rendering="geometricPrecision" transform="matrix(1,0,0,1,-300,-30)" stroke="rgb(204,255,255)">
      <rect x="330" width="130" height="150" y="389.88" clip-path="url(#clipPath2)" stroke="none"/>
    </g>
    <g text-rendering="geometricPrecision" stroke-miterlimit="1.45" shape-rendering="geometricPrecision" font-family="sans-serif" transform="matrix(1,0,0,1,-300,-30)" stroke-linecap="butt">
      <text x="338.9639" xml:space="preserve" y="557.9445" clip-path="url(#clipPath2)" stroke="none">Falling edge detector</text>
      <rect x="330" y="389.88" clip-path="url(#clipPath2)" fill="none" width="130" stroke-dasharray="12,4" height="150" stroke-width="2"/>
    </g>
    <g fill="white" text-rendering="geometricPrecision" shape-rendering="geometricPrecision" transform="matrix(1,0,0,1,-300,-30)" stroke="white">
      <rect x="525" width="30" height="30" y="195" clip-path="url(#clipPath2)" stroke="none"/>
    </g>
    <g text-rendering="geometricPrecision" stroke-miterlimit="1.45" shape-rendering="geometricPrecision" font-family="sans-serif" transform="matrix(1,0,0,1,-300,-30)" stroke-linecap="butt">
      <text x="536.6631" xml:space="preserve" y="214.7139" clip-path="url(#clipPath2)" stroke="none">0</text>
      <rect fill="none" x="525" width="30" height="30" y="195" clip-path="url(#clipPath2)"/>
    </g>
    <g fill="white" text-rendering="geometricPrecision" shape-rendering="geometricPrecision" transform="matrix(1,0,0,1,-300,-30)" stroke="white">
      <rect x="495" width="30" height="30" y="195" clip-path="url(#clipPath2)" stroke="none"/>
    </g>
    <g text-rendering="geometricPrecision" stroke-miterlimit="1.45" shape-rendering="geometricPrecision" font-family="sans-serif" transform="matrix(1,0,0,1,-300,-30)" stroke-linecap="butt">
      <text x="506.6631" xml:space="preserve" y="214.7139" clip-path="url(#clipPath2)" stroke="none">1</text>
      <rect fill="none" x="495" width="30" height="30" y="195" clip-path="url(#clipPath2)"/>
    </g>
    <g fill="white" text-rendering="geometricPrecision" shape-rendering="geometricPrecision" transform="matrix(1,0,0,1,-300,-30)" stroke="white">
      <rect x="465" width="30" height="30" y="195" clip-path="url(#clipPath2)" stroke="none"/>
    </g>
    <g text-rendering="geometricPrecision" stroke-miterlimit="1.45" shape-rendering="geometricPrecision" font-family="sans-serif" transform="matrix(1,0,0,1,-300,-30)" stroke-linecap="butt">
      <text x="476.6631" xml:space="preserve" y="214.7139" clip-path="url(#clipPath2)" stroke="none">2</text>
      <rect fill="none" x="465" width="30" height="30" y="195" clip-path="url(#clipPath2)"/>
    </g>
    <g fill="white" text-rendering="geometricPrecision" shape-rendering="geometricPrecision" transform="matrix(1,0,0,1,-300,-30)" stroke="white">
      <rect x="435" width="30" height="30" y="195" clip-path="url(#clipPath2)" stroke="none"/>
    </g>
    <g text-rendering="geometricPrecision" stroke-miterlimit="1.45" shape-rendering="geometricPrecision" font-family="sans-serif" transform="matrix(1,0,0,1,-300,-30)" stroke-linecap="butt">
      <text x="446.6631" xml:space="preserve" y="214.7139" clip-path="url(#clipPath2)" stroke="none">3</text>
      <rect fill="none" x="435" width="30" height="30" y="195" clip-path="url(#clipPath2)"/>
    </g>
    <g fill="white" text-rendering="geometricPrecision" shape-rendering="geometricPrecision" transform="matrix(1,0,0,1,-300,-30)" stroke="white">
      <rect x="405" width="30" height="30" y="195" clip-path="url(#clipPath2)" stroke="none"/>
    </g>
    <g text-rendering="geometricPrecision" stroke-miterlimit="1.45" shape-rendering="geometricPrecision" font-family="sans-serif" transform="matrix(1,0,0,1,-300,-30)" stroke-linecap="butt">
      <text x="416.6631" xml:space="preserve" y="214.7139" clip-path="url(#clipPath2)" stroke="none">4</text>
      <rect fill="none" x="405" width="30" height="30" y="195" clip-path="url(#clipPath2)"/>
    </g>
    <g fill="white" text-rendering="geometricPrecision" shape-rendering="geometricPrecision" transform="matrix(1,0,0,1,-300,-30)" stroke="white">
      <rect x="375" width="30" height="30" y="195" clip-path="url(#clipPath2)" stroke="none"/>
    </g>
    <g text-rendering="geometricPrecision" stroke-miterlimit="1.45" shape-rendering="geometricPrecision" font-family="sans-serif" transform="matrix(1,0,0,1,-300,-30)" stroke-linecap="butt">
      <text x="386.6631" xml:space="preserve" y="214.7139" clip-path="url(#clipPath2)" stroke="none">5</text>
      <rect fill="none" x="375" width="30" height="30" y="195" clip-path="url(#clipPath2)"/>
    </g>
    <g fill="white" text-rendering="geometricPrecision" shape-rendering="geometricPrecision" transform="matrix(1,0,0,1,-300,-30)" stroke="white">
      <rect x="345" width="30" height="30" y="195" clip-path="url(#clipPath2)" stroke="none"/>
    </g>
    <g text-rendering="geometricPrecision" stroke-miterlimit="1.45" shape-rendering="geometricPrecision" font-family="sans-serif" transform="matrix(1,0,0,1,-300,-30)" stroke-linecap="butt">
      <text x="356.6631" xml:space="preserve" y="214.7139" clip-path="url(#clipPath2)" stroke="none">6</text>
      <rect fill="none" x="345" width="30" height="30" y="195" clip-path="url(#clipPath2)"/>
    </g>
    <g fill="white" text-rendering="geometricPrecision" shape-rendering="geometricPrecision" transform="matrix(1,0,0,1,-300,-30)" stroke="white">
      <rect x="315" width="30" height="30" y="195" clip-path="url(#clipPath2)" stroke="none"/>
    </g>
    <g text-rendering="geometricPrecision" stroke-miterlimit="1.45" shape-rendering="geometricPrecision" font-family="sans-serif" transform="matrix(1,0,0,1,-300,-30)" stroke-linecap="butt">
      <text x="326.6631" xml:space="preserve" y="214.7139" clip-path="url(#clipPath2)" stroke="none">7</text>
      <rect fill="none" x="315" width="30" height="30" y="195" clip-path="url(#clipPath2)"/>
    </g>
    <g fill="lime" text-rendering="geometricPrecision" shape-rendering="geometricPrecision" transform="matrix(1,0,0,1,-300,-30)" stroke="lime">
      <circle r="25" clip-path="url(#clipPath2)" cx="450" cy="150" stroke="none"/>
    </g>
    <g text-rendering="geometricPrecision" stroke-miterlimit="1.45" shape-rendering="geometricPrecision" font-family="sans-serif" transform="matrix(1,0,0,1,-300,-30)" stroke-linecap="butt">
      <text x="429.9961" xml:space="preserve" y="147.3633" clip-path="url(#clipPath2)" stroke="none">System</text>
      <text x="438.3281" xml:space="preserve" y="162.0645" clip-path="url(#clipPath2)" stroke="none">CLK</text>
      <circle fill="none" r="25" clip-path="url(#clipPath2)" cx="450" cy="150"/>
    </g>
    <g fill="aqua" text-rendering="geometricPrecision" shape-rendering="geometricPrecision" transform="matrix(1,0,0,1,-300,-30)" stroke="aqua">
      <rect x="405" width="30" height="30" y="315" clip-path="url(#clipPath2)" stroke="none"/>
    </g>
    <g text-rendering="geometricPrecision" stroke-miterlimit="1.45" shape-rendering="geometricPrecision" font-family="sans-serif" transform="matrix(1,0,0,1,-300,-30)" stroke-linecap="butt">
      <text x="407.332" xml:space="preserve" y="334.7139" clip-path="url(#clipPath2)" stroke="none">AND</text>
      <rect fill="none" x="405" width="30" height="30" y="315" clip-path="url(#clipPath2)"/>
    </g>
    <g fill="white" text-rendering="geometricPrecision" shape-rendering="geometricPrecision" transform="matrix(1,0,0,1,-300,-30)" stroke="white">
      <rect x="705" width="30" height="30" y="75" clip-path="url(#clipPath2)" stroke="none"/>
    </g>
    <g text-rendering="geometricPrecision" stroke-miterlimit="1.45" shape-rendering="geometricPrecision" font-family="sans-serif" transform="matrix(1,0,0,1,-300,-30)" stroke-linecap="butt">
      <text x="716.6631" xml:space="preserve" y="94.7139" clip-path="url(#clipPath2)" stroke="none">0</text>
      <rect fill="none" x="705" width="30" height="30" y="75" clip-path="url(#clipPath2)"/>
    </g>
    <g fill="white" text-rendering="geometricPrecision" shape-rendering="geometricPrecision" transform="matrix(1,0,0,1,-300,-30)" stroke="white">
      <rect x="675" width="30" height="30" y="75" clip-path="url(#clipPath2)" stroke="none"/>
    </g>
    <g text-rendering="geometricPrecision" stroke-miterlimit="1.45" shape-rendering="geometricPrecision" font-family="sans-serif" transform="matrix(1,0,0,1,-300,-30)" stroke-linecap="butt">
      <text x="686.6631" xml:space="preserve" y="94.7139" clip-path="url(#clipPath2)" stroke="none">1</text>
      <rect fill="none" x="675" width="30" height="30" y="75" clip-path="url(#clipPath2)"/>
    </g>
    <g fill="white" text-rendering="geometricPrecision" shape-rendering="geometricPrecision" transform="matrix(1,0,0,1,-300,-30)" stroke="white">
      <rect x="645" width="30" height="30" y="75" clip-path="url(#clipPath2)" stroke="none"/>
    </g>
    <g text-rendering="geometricPrecision" stroke-miterlimit="1.45" shape-rendering="geometricPrecision" font-family="sans-serif" transform="matrix(1,0,0,1,-300,-30)" stroke-linecap="butt">
      <text x="656.6631" xml:space="preserve" y="94.7139" clip-path="url(#clipPath2)" stroke="none">2</text>
      <rect fill="none" x="645" width="30" height="30" y="75" clip-path="url(#clipPath2)"/>
    </g>
    <g fill="white" text-rendering="geometricPrecision" shape-rendering="geometricPrecision" transform="matrix(1,0,0,1,-300,-30)" stroke="white">
      <rect x="615" width="30" height="30" y="75" clip-path="url(#clipPath2)" stroke="none"/>
    </g>
    <g text-rendering="geometricPrecision" stroke-miterlimit="1.45" shape-rendering="geometricPrecision" font-family="sans-serif" transform="matrix(1,0,0,1,-300,-30)" stroke-linecap="butt">
      <text x="626.6631" xml:space="preserve" y="94.7139" clip-path="url(#clipPath2)" stroke="none">3</text>
      <rect fill="none" x="615" width="30" height="30" y="75" clip-path="url(#clipPath2)"/>
    </g>
    <g fill="white" text-rendering="geometricPrecision" shape-rendering="geometricPrecision" transform="matrix(1,0,0,1,-300,-30)" stroke="white">
      <rect x="585" width="30" height="30" y="75" clip-path="url(#clipPath2)" stroke="none"/>
    </g>
    <g text-rendering="geometricPrecision" stroke-miterlimit="1.45" shape-rendering="geometricPrecision" font-family="sans-serif" transform="matrix(1,0,0,1,-300,-30)" stroke-linecap="butt">
      <text x="596.6631" xml:space="preserve" y="94.7139" clip-path="url(#clipPath2)" stroke="none">4</text>
      <rect fill="none" x="585" width="30" height="30" y="75" clip-path="url(#clipPath2)"/>
    </g>
    <g fill="white" text-rendering="geometricPrecision" shape-rendering="geometricPrecision" transform="matrix(1,0,0,1,-300,-30)" stroke="white">
      <rect x="555" width="30" height="30" y="75" clip-path="url(#clipPath2)" stroke="none"/>
    </g>
    <g text-rendering="geometricPrecision" stroke-miterlimit="1.45" shape-rendering="geometricPrecision" font-family="sans-serif" transform="matrix(1,0,0,1,-300,-30)" stroke-linecap="butt">
      <text x="566.6631" xml:space="preserve" y="94.7139" clip-path="url(#clipPath2)" stroke="none">5</text>
      <rect fill="none" x="555" width="30" height="30" y="75" clip-path="url(#clipPath2)"/>
    </g>
    <g fill="white" text-rendering="geometricPrecision" shape-rendering="geometricPrecision" transform="matrix(1,0,0,1,-300,-30)" stroke="white">
      <rect x="525" width="30" height="30" y="75" clip-path="url(#clipPath2)" stroke="none"/>
    </g>
    <g text-rendering="geometricPrecision" stroke-miterlimit="1.45" shape-rendering="geometricPrecision" font-family="sans-serif" transform="matrix(1,0,0,1,-300,-30)" stroke-linecap="butt">
      <text x="536.6631" xml:space="preserve" y="94.7139" clip-path="url(#clipPath2)" stroke="none">6</text>
      <rect fill="none" x="525" width="30" height="30" y="75" clip-path="url(#clipPath2)"/>
    </g>
    <g fill="white" text-rendering="geometricPrecision" shape-rendering="geometricPrecision" transform="matrix(1,0,0,1,-300,-30)" stroke="white">
      <rect x="495" width="30" height="30" y="75" clip-path="url(#clipPath2)" stroke="none"/>
    </g>
    <g text-rendering="geometricPrecision" stroke-miterlimit="1.45" shape-rendering="geometricPrecision" font-family="sans-serif" transform="matrix(1,0,0,1,-300,-30)" stroke-linecap="butt">
      <text x="506.6631" xml:space="preserve" y="94.7139" clip-path="url(#clipPath2)" stroke="none">7</text>
      <rect fill="none" x="495" width="30" height="30" y="75" clip-path="url(#clipPath2)"/>
    </g>
    <g fill="silver" text-rendering="geometricPrecision" shape-rendering="geometricPrecision" transform="matrix(1,0,0,1,-300,-30)" stroke="silver">
      <path d="M495 75 L555 45 L675 45 L735 75 Z" fill-rule="evenodd" clip-path="url(#clipPath2)" stroke="none"/>
    </g>
    <g text-rendering="geometricPrecision" stroke-miterlimit="1.45" shape-rendering="geometricPrecision" font-family="sans-serif" transform="matrix(1,0,0,1,-300,-30)" stroke-linecap="butt">
      <text x="606.665" xml:space="preserve" y="64.7139" clip-path="url(#clipPath2)" stroke="none">SC</text>
      <path fill="none" d="M495 75 L555 45 L675 45 L735 75 Z" clip-path="url(#clipPath2)" fill-rule="evenodd"/>
    </g>
    <g fill="lime" text-rendering="geometricPrecision" shape-rendering="geometricPrecision" transform="matrix(1,0,0,1,-300,-30)" stroke="lime">
      <circle r="25" clip-path="url(#clipPath2)" cx="780" cy="480" stroke="none"/>
    </g>
    <g text-rendering="geometricPrecision" stroke-miterlimit="1.45" shape-rendering="geometricPrecision" font-family="sans-serif" transform="matrix(1,0,0,1,-300,-30)" stroke-linecap="butt">
      <text x="765.9873" xml:space="preserve" y="477.3633" clip-path="url(#clipPath2)" stroke="none">Send</text>
      <text x="773.6631" xml:space="preserve" y="492.0645" clip-path="url(#clipPath2)" stroke="none">bit</text>
      <circle fill="none" r="25" clip-path="url(#clipPath2)" cx="780" cy="480"/>
    </g>
    <g fill="aqua" text-rendering="geometricPrecision" shape-rendering="geometricPrecision" transform="matrix(1,0,0,1,-300,-30)" stroke="aqua">
      <rect x="397.5" width="45" height="30" y="435" clip-path="url(#clipPath2)" stroke="none"/>
    </g>
    <g text-rendering="geometricPrecision" stroke-miterlimit="1.45" shape-rendering="geometricPrecision" font-family="sans-serif" transform="matrix(1,0,0,1,-300,-30)" stroke-linecap="butt">
      <text x="404.6602" xml:space="preserve" y="454.7139" clip-path="url(#clipPath2)" stroke="none">Delay</text>
      <rect fill="none" x="397.5" width="45" height="30" y="435" clip-path="url(#clipPath2)"/>
    </g>
    <g fill="aqua" text-rendering="geometricPrecision" shape-rendering="geometricPrecision" transform="matrix(1,0,0,1,-300,-30)" stroke="aqua">
      <rect x="405" width="30" height="30" y="495" clip-path="url(#clipPath2)" stroke="none"/>
    </g>
    <g text-rendering="geometricPrecision" stroke-miterlimit="1.45" shape-rendering="geometricPrecision" font-family="sans-serif" transform="matrix(1,0,0,1,-300,-30)" stroke-linecap="butt">
      <text x="407.332" xml:space="preserve" y="514.7139" clip-path="url(#clipPath2)" stroke="none">AND</text>
      <rect fill="none" x="405" width="30" height="30" y="495" clip-path="url(#clipPath2)"/>
    </g>
    <g fill="aqua" text-rendering="geometricPrecision" shape-rendering="geometricPrecision" transform="matrix(1,0,0,1,-300,-30)" stroke="aqua">
      <rect x="345" width="30" height="30" y="435" clip-path="url(#clipPath2)" stroke="none"/>
    </g>
    <g text-rendering="geometricPrecision" stroke-miterlimit="1.45" shape-rendering="geometricPrecision" font-family="sans-serif" transform="matrix(1,0,0,1,-300,-30)" stroke-linecap="butt">
      <text x="347.335" xml:space="preserve" y="454.7139" clip-path="url(#clipPath2)" stroke="none">NOT</text>
      <rect fill="none" x="345" width="30" height="30" y="435" clip-path="url(#clipPath2)"/>
    </g>
    <g fill="aqua" text-rendering="geometricPrecision" shape-rendering="geometricPrecision" transform="matrix(1,0,0,1,-300,-30)" stroke="aqua">
      <path d="M315 255 L525 255 L472.5 285 L367.5 285 Z" fill-rule="evenodd" clip-path="url(#clipPath2)" stroke="none"/>
    </g>
    <g text-rendering="geometricPrecision" stroke-miterlimit="1.45" shape-rendering="geometricPrecision" font-family="sans-serif" transform="matrix(1,0,0,1,-300,-30)" stroke-linecap="butt">
      <text x="369.9844" xml:space="preserve" y="274.7139" clip-path="url(#clipPath2)" stroke="none">0                          1</text>
      <path fill="none" d="M315 255 L525 255 L472.5 285 L367.5 285 Z" clip-path="url(#clipPath2)" fill-rule="evenodd"/>
    </g>
    <g fill="aqua" text-rendering="geometricPrecision" shape-rendering="geometricPrecision" transform="matrix(1,0,0,1,-300,-30)" stroke="aqua">
      <rect x="585" width="30" height="30" y="465" clip-path="url(#clipPath2)" stroke="none"/>
    </g>
    <g text-rendering="geometricPrecision" stroke-miterlimit="1.45" shape-rendering="geometricPrecision" font-family="sans-serif" transform="matrix(1,0,0,1,-300,-30)" stroke-linecap="butt">
      <text x="587.666" xml:space="preserve" y="484.7139" clip-path="url(#clipPath2)" stroke="none">D  Q</text>
      <rect fill="none" x="585" width="30" height="30" y="465" clip-path="url(#clipPath2)"/>
    </g>
    <g fill="aqua" text-rendering="geometricPrecision" shape-rendering="geometricPrecision" transform="matrix(1,0,0,1,-300,-30)" stroke="aqua">
      <rect x="525" width="30" height="30" y="465" clip-path="url(#clipPath2)" stroke="none"/>
    </g>
    <g text-rendering="geometricPrecision" stroke-miterlimit="1.45" shape-rendering="geometricPrecision" font-family="sans-serif" transform="matrix(1,0,0,1,-300,-30)" stroke-linecap="butt">
      <text x="526.998" xml:space="preserve" y="484.7139" clip-path="url(#clipPath2)" stroke="none">XOR</text>
      <rect fill="none" x="525" width="30" height="30" y="465" clip-path="url(#clipPath2)"/>
    </g>
    <g fill="rgb(204,255,255)" text-rendering="geometricPrecision" shape-rendering="geometricPrecision" transform="matrix(1,0,0,1,-300,-30)" stroke="rgb(204,255,255)">
      <rect x="660" width="60" height="60" y="450" clip-path="url(#clipPath2)" stroke="none"/>
    </g>
    <g text-rendering="geometricPrecision" stroke-miterlimit="1.45" shape-rendering="geometricPrecision" font-family="sans-serif" transform="matrix(1,0,0,1,-300,-30)" stroke-linecap="butt">
      <text x="672.3252" xml:space="preserve" y="470.0127" clip-path="url(#clipPath2)" stroke="none">Falling</text>
      <text x="676.6523" xml:space="preserve" y="484.7139" clip-path="url(#clipPath2)" stroke="none">edge</text>
      <text x="668.3203" xml:space="preserve" y="499.415" clip-path="url(#clipPath2)" stroke="none">detector</text>
      <rect x="660" y="450" clip-path="url(#clipPath2)" fill="none" width="60" stroke-dasharray="12,4" height="60" stroke-width="2"/>
      <path fill="none" d="M475 150 L540 150 L540 187" clip-path="url(#clipPath2)"/>
      <path d="M540 195 L545 183 L540 186 L535 183 Z" clip-path="url(#clipPath2)" stroke="none"/>
      <text x="489.0498" xml:space="preserve" y="144.3633" clip-path="url(#clipPath2)" stroke="none">Increase</text>
      <path fill="none" d="M720 105 L720 330 L443 330" clip-path="url(#clipPath2)"/>
      <path d="M435 330 L447 335 L444 330 L447 325 Z" clip-path="url(#clipPath2)" stroke="none"/>
      <text x="537.0449" xml:space="preserve" y="323.3633" clip-path="url(#clipPath2)" stroke="none">SC.InternalClock</text>
      <path fill="none" d="M420 345 L420 390 L420 390 L420 427" clip-path="url(#clipPath2)"/>
      <path d="M420 435 L425 423 L420 426 L415 423 Z" clip-path="url(#clipPath2)" stroke="none"/>
      <path fill="none" d="M420 465 L420 487" clip-path="url(#clipPath2)"/>
      <path d="M420 495 L425 483 L420 486 L415 483 Z" clip-path="url(#clipPath2)" stroke="none"/>
      <path fill="none" d="M420 345 L420 400 L360 420 L360 427" clip-path="url(#clipPath2)"/>
      <path d="M360 435 L365 423 L360 426 L355 423 Z" clip-path="url(#clipPath2)" stroke="none"/>
      <path fill="none" d="M360 465 L360 510 L397 510" clip-path="url(#clipPath2)"/>
      <path d="M405 510 L393 505 L396 510 L393 515 Z" clip-path="url(#clipPath2)" stroke="none"/>
      <path fill="none" d="M690 105 L690 270 L506.739 270" clip-path="url(#clipPath2)"/>
      <path d="M498.739 270 L510.739 275 L507.739 270 L510.739 265 Z" clip-path="url(#clipPath2)" stroke="none"/>
      <text x="631.2969" xml:space="preserve" y="196.7764" clip-path="url(#clipPath2)" stroke="none">SC.Speed</text>
      <path fill="none" d="M480 225 L480 246.9707" clip-path="url(#clipPath2)"/>
      <path d="M480 254.9707 L485 242.9707 L480 245.9707 L475 242.9707 Z" clip-path="url(#clipPath2)" stroke="none"/>
      <path fill="none" d="M330 225 L330 246.9707" clip-path="url(#clipPath2)"/>
      <path d="M330 254.9707 L335 242.9707 L330 245.9707 L325 242.9707 Z" clip-path="url(#clipPath2)" stroke="none"/>
      <path fill="none" d="M420 284.9707 L420 307" clip-path="url(#clipPath2)"/>
      <path d="M420 315 L425 303 L420 306 L415 303 Z" clip-path="url(#clipPath2)" stroke="none"/>
      <path fill="none" d="M615 480 L630 480 L630 420 L480 420 L480 450 L517.8446 468.9223" clip-path="url(#clipPath2)"/>
      <path d="M525 472.5 L516.5029 462.6613 L516.9501 468.4751 L512.0308 471.6056 Z" clip-path="url(#clipPath2)" stroke="none"/>
      <path fill="none" d="M435 510 L480 510 L517.8446 491.0777" clip-path="url(#clipPath2)"/>
      <path d="M525 487.5 L512.0308 488.3944 L516.9501 491.5249 L516.5029 497.3387 Z" clip-path="url(#clipPath2)" stroke="none"/>
      <path fill="none" d="M555 480 L577 480" clip-path="url(#clipPath2)"/>
      <path d="M585 480 L573 475 L576 480 L573 485 Z" clip-path="url(#clipPath2)" stroke="none"/>
      <path fill="none" d="M615 480 L652 480" clip-path="url(#clipPath2)"/>
      <path d="M660 480 L648 475 L651 480 L648 485 Z" clip-path="url(#clipPath2)" stroke="none"/>
      <path fill="none" d="M720 480 L747 480" clip-path="url(#clipPath2)"/>
      <path d="M755 480 L743 475 L746 480 L743 485 Z" clip-path="url(#clipPath2)" stroke="none"/>
    </g>
  </g>
</svg>
