<?xml version="1.0" encoding="UTF-8"?><svg xmlns="http://www.w3.org/2000/svg" xmlns:xlink="http://www.w3.org/1999/xlink" fill-opacity="1" color-rendering="auto" color-interpolation="auto" text-rendering="auto" stroke="black" stroke-linecap="square" width="615" stroke-miterlimit="10" shape-rendering="auto" stroke-opacity="1" fill="black" stroke-dasharray="none" font-weight="normal" stroke-width="1" height="525" font-family="'Dialog'" font-style="normal" stroke-linejoin="miter" font-size="12px" stroke-dashoffset="0" image-rendering="auto">
  <!--Generated by ySVG 2.5-->
  <defs id="genericDefs"/>
  <g>
    <defs id="defs1">
      <clipPath clipPathUnits="userSpaceOnUse" id="clipPath1">
        <path d="M0 0 L615 0 L615 525 L0 525 L0 0 Z"/>
      </clipPath>
      <clipPath clipPathUnits="userSpaceOnUse" id="clipPath2">
        <path d="M0 -15 L615 -15 L615 510 L0 510 L0 -15 Z"/>
      </clipPath>
    </defs>
    <g fill="white" text-rendering="geometricPrecision" shape-rendering="geometricPrecision" transform="translate(0,15)" stroke="white">
      <rect x="0" width="615" height="525" y="-15" clip-path="url(#clipPath2)" stroke="none"/>
    </g>
    <g fill="lime" text-rendering="geometricPrecision" shape-rendering="geometricPrecision" transform="matrix(1,0,0,1,0,15)" stroke="lime">
      <path d="M410 195 L418 180 L482 180 L490 195 L482 210 L418 210 Z" fill-rule="evenodd" clip-path="url(#clipPath2)" stroke="none"/>
    </g>
    <g text-rendering="geometricPrecision" stroke-miterlimit="1.45" shape-rendering="geometricPrecision" font-family="sans-serif" transform="matrix(1,0,0,1,0,15)" stroke-linecap="butt">
      <text x="418.333" xml:space="preserve" y="199.7139" clip-path="url(#clipPath2)" stroke="none">TIMA_Write</text>
      <path fill="none" d="M410 195 L418 180 L482 180 L490 195 L482 210 L418 210 Z" clip-path="url(#clipPath2)" fill-rule="evenodd"/>
    </g>
    <g fill="silver" text-rendering="geometricPrecision" shape-rendering="geometricPrecision" transform="matrix(1,0,0,1,0,15)" stroke="silver">
      <rect x="75" width="240" height="30" y="0" clip-path="url(#clipPath2)" stroke="none"/>
    </g>
    <g text-rendering="geometricPrecision" stroke-miterlimit="1.45" shape-rendering="geometricPrecision" font-family="sans-serif" transform="matrix(1,0,0,1,0,15)" stroke-linecap="butt">
      <text x="182.335" xml:space="preserve" y="19.7139" clip-path="url(#clipPath2)" stroke="none">TMA</text>
      <rect fill="none" x="75" width="240" height="30" y="0" clip-path="url(#clipPath2)"/>
    </g>
    <g fill="silver" text-rendering="geometricPrecision" shape-rendering="geometricPrecision" transform="matrix(1,0,0,1,0,15)" stroke="silver">
      <rect x="75" width="240" height="30" y="345" clip-path="url(#clipPath2)" stroke="none"/>
    </g>
    <g text-rendering="geometricPrecision" stroke-miterlimit="1.45" shape-rendering="geometricPrecision" font-family="sans-serif" transform="matrix(1,0,0,1,0,15)" stroke-linecap="butt">
      <text x="180.668" xml:space="preserve" y="364.7139" clip-path="url(#clipPath2)" stroke="none">TIMA</text>
      <rect fill="none" x="75" width="240" height="30" y="345" clip-path="url(#clipPath2)"/>
    </g>
    <g fill="white" text-rendering="geometricPrecision" shape-rendering="geometricPrecision" transform="matrix(1,0,0,1,0,15)" stroke="white">
      <rect x="570" width="30" height="30" y="30" clip-path="url(#clipPath2)" stroke="none"/>
    </g>
    <g text-rendering="geometricPrecision" stroke-miterlimit="1.45" shape-rendering="geometricPrecision" font-family="sans-serif" transform="matrix(1,0,0,1,0,15)" stroke-linecap="butt">
      <text x="581.6631" xml:space="preserve" y="49.7139" clip-path="url(#clipPath2)" stroke="none">0</text>
      <rect fill="none" x="570" width="30" height="30" y="30" clip-path="url(#clipPath2)"/>
    </g>
    <g fill="white" text-rendering="geometricPrecision" shape-rendering="geometricPrecision" transform="matrix(1,0,0,1,0,15)" stroke="white">
      <rect x="540" width="30" height="30" y="30" clip-path="url(#clipPath2)" stroke="none"/>
    </g>
    <g text-rendering="geometricPrecision" stroke-miterlimit="1.45" shape-rendering="geometricPrecision" font-family="sans-serif" transform="matrix(1,0,0,1,0,15)" stroke-linecap="butt">
      <text x="551.6631" xml:space="preserve" y="49.7139" clip-path="url(#clipPath2)" stroke="none">1</text>
      <rect fill="none" x="540" width="30" height="30" y="30" clip-path="url(#clipPath2)"/>
    </g>
    <g fill="white" text-rendering="geometricPrecision" shape-rendering="geometricPrecision" transform="matrix(1,0,0,1,0,15)" stroke="white">
      <rect x="510" width="30" height="30" y="30" clip-path="url(#clipPath2)" stroke="none"/>
    </g>
    <g text-rendering="geometricPrecision" stroke-miterlimit="1.45" shape-rendering="geometricPrecision" font-family="sans-serif" transform="matrix(1,0,0,1,0,15)" stroke-linecap="butt">
      <text x="521.6631" xml:space="preserve" y="49.7139" clip-path="url(#clipPath2)" stroke="none">2</text>
      <rect fill="none" x="510" width="30" height="30" y="30" clip-path="url(#clipPath2)"/>
    </g>
    <g fill="white" text-rendering="geometricPrecision" shape-rendering="geometricPrecision" transform="matrix(1,0,0,1,0,15)" stroke="white">
      <rect x="480" width="30" height="30" y="30" clip-path="url(#clipPath2)" stroke="none"/>
    </g>
    <g text-rendering="geometricPrecision" stroke-miterlimit="1.45" shape-rendering="geometricPrecision" font-family="sans-serif" transform="matrix(1,0,0,1,0,15)" stroke-linecap="butt">
      <text x="491.6631" xml:space="preserve" y="49.7139" clip-path="url(#clipPath2)" stroke="none">3</text>
      <rect fill="none" x="480" width="30" height="30" y="30" clip-path="url(#clipPath2)"/>
    </g>
    <g fill="white" text-rendering="geometricPrecision" shape-rendering="geometricPrecision" transform="matrix(1,0,0,1,0,15)" stroke="white">
      <rect x="450" width="30" height="30" y="30" clip-path="url(#clipPath2)" stroke="none"/>
    </g>
    <g text-rendering="geometricPrecision" stroke-miterlimit="1.45" shape-rendering="geometricPrecision" font-family="sans-serif" transform="matrix(1,0,0,1,0,15)" stroke-linecap="butt">
      <text x="461.6631" xml:space="preserve" y="49.7139" clip-path="url(#clipPath2)" stroke="none">4</text>
      <rect fill="none" x="450" width="30" height="30" y="30" clip-path="url(#clipPath2)"/>
    </g>
    <g fill="white" text-rendering="geometricPrecision" shape-rendering="geometricPrecision" transform="matrix(1,0,0,1,0,15)" stroke="white">
      <rect x="420" width="30" height="30" y="30" clip-path="url(#clipPath2)" stroke="none"/>
    </g>
    <g text-rendering="geometricPrecision" stroke-miterlimit="1.45" shape-rendering="geometricPrecision" font-family="sans-serif" transform="matrix(1,0,0,1,0,15)" stroke-linecap="butt">
      <text x="431.6631" xml:space="preserve" y="49.7139" clip-path="url(#clipPath2)" stroke="none">5</text>
      <rect fill="none" x="420" width="30" height="30" y="30" clip-path="url(#clipPath2)"/>
    </g>
    <g fill="white" text-rendering="geometricPrecision" shape-rendering="geometricPrecision" transform="matrix(1,0,0,1,0,15)" stroke="white">
      <rect x="390" width="30" height="30" y="30" clip-path="url(#clipPath2)" stroke="none"/>
    </g>
    <g text-rendering="geometricPrecision" stroke-miterlimit="1.45" shape-rendering="geometricPrecision" font-family="sans-serif" transform="matrix(1,0,0,1,0,15)" stroke-linecap="butt">
      <text x="401.6631" xml:space="preserve" y="49.7139" clip-path="url(#clipPath2)" stroke="none">6</text>
      <rect fill="none" x="390" width="30" height="30" y="30" clip-path="url(#clipPath2)"/>
    </g>
    <g fill="white" text-rendering="geometricPrecision" shape-rendering="geometricPrecision" transform="matrix(1,0,0,1,0,15)" stroke="white">
      <rect x="360" width="30" height="30" y="30" clip-path="url(#clipPath2)" stroke="none"/>
    </g>
    <g text-rendering="geometricPrecision" stroke-miterlimit="1.45" shape-rendering="geometricPrecision" font-family="sans-serif" transform="matrix(1,0,0,1,0,15)" stroke-linecap="butt">
      <text x="371.6631" xml:space="preserve" y="49.7139" clip-path="url(#clipPath2)" stroke="none">7</text>
      <rect fill="none" x="360" width="30" height="30" y="30" clip-path="url(#clipPath2)"/>
    </g>
    <g fill="silver" text-rendering="geometricPrecision" shape-rendering="geometricPrecision" transform="matrix(1,0,0,1,0,15)" stroke="silver">
      <path d="M360 30 L420 0 L540 0 L600 30 Z" fill-rule="evenodd" clip-path="url(#clipPath2)" stroke="none"/>
    </g>
    <g text-rendering="geometricPrecision" stroke-miterlimit="1.45" shape-rendering="geometricPrecision" font-family="sans-serif" transform="matrix(1,0,0,1,0,15)" stroke-linecap="butt">
      <text x="474.668" xml:space="preserve" y="19.7139" clip-path="url(#clipPath2)" stroke="none">IF</text>
      <path fill="none" d="M360 30 L420 0 L540 0 L600 30 Z" clip-path="url(#clipPath2)" fill-rule="evenodd"/>
    </g>
    <g fill="lime" text-rendering="geometricPrecision" shape-rendering="geometricPrecision" transform="matrix(1,0,0,1,0,15)" stroke="lime">
      <circle r="25" clip-path="url(#clipPath2)" cx="312.5" cy="420" stroke="none"/>
    </g>
    <g text-rendering="geometricPrecision" stroke-miterlimit="1.45" shape-rendering="geometricPrecision" font-family="sans-serif" transform="matrix(1,0,0,1,0,15)" stroke-linecap="butt">
      <text x="297.1689" xml:space="preserve" y="417.3633" clip-path="url(#clipPath2)" stroke="none">Timer</text>
      <text x="302.167" xml:space="preserve" y="432.0645" clip-path="url(#clipPath2)" stroke="none">INC</text>
      <circle fill="none" r="25" clip-path="url(#clipPath2)" cx="312.5" cy="420"/>
    </g>
    <g fill="aqua" text-rendering="geometricPrecision" shape-rendering="geometricPrecision" transform="matrix(1,0,0,1,0,15)" stroke="aqua">
      <rect x="435" width="30" height="30" y="465" clip-path="url(#clipPath2)" stroke="none"/>
    </g>
    <g text-rendering="geometricPrecision" stroke-miterlimit="1.45" shape-rendering="geometricPrecision" font-family="sans-serif" transform="matrix(1,0,0,1,0,15)" stroke-linecap="butt">
      <text x="437.332" xml:space="preserve" y="484.7139" clip-path="url(#clipPath2)" stroke="none">AND</text>
      <rect fill="none" x="435" width="30" height="30" y="465" clip-path="url(#clipPath2)"/>
    </g>
    <g fill="aqua" text-rendering="geometricPrecision" shape-rendering="geometricPrecision" transform="matrix(1,0,0,1,0,15)" stroke="aqua">
      <rect x="367.5" width="45" height="30" y="465" clip-path="url(#clipPath2)" stroke="none"/>
    </g>
    <g text-rendering="geometricPrecision" stroke-miterlimit="1.45" shape-rendering="geometricPrecision" font-family="sans-serif" transform="matrix(1,0,0,1,0,15)" stroke-linecap="butt">
      <text x="374.6602" xml:space="preserve" y="484.7139" clip-path="url(#clipPath2)" stroke="none">Delay</text>
      <rect fill="none" x="367.5" width="45" height="30" y="465" clip-path="url(#clipPath2)"/>
    </g>
    <g fill="aqua" text-rendering="geometricPrecision" shape-rendering="geometricPrecision" transform="matrix(1,0,0,1,0,15)" stroke="aqua">
      <rect x="435" width="30" height="30" y="405" clip-path="url(#clipPath2)" stroke="none"/>
    </g>
    <g text-rendering="geometricPrecision" stroke-miterlimit="1.45" shape-rendering="geometricPrecision" font-family="sans-serif" transform="matrix(1,0,0,1,0,15)" stroke-linecap="butt">
      <text x="437.335" xml:space="preserve" y="424.7139" clip-path="url(#clipPath2)" stroke="none">NOT</text>
      <rect fill="none" x="435" width="30" height="30" y="405" clip-path="url(#clipPath2)"/>
    </g>
    <g fill="aqua" text-rendering="geometricPrecision" shape-rendering="geometricPrecision" transform="matrix(1,0,0,1,0,15)" stroke="aqua">
      <path d="M120 225 L210 225 L187.5 255 L142.5 255 Z" fill-rule="evenodd" clip-path="url(#clipPath2)" stroke="none"/>
    </g>
    <g text-rendering="geometricPrecision" stroke-miterlimit="1.45" shape-rendering="geometricPrecision" font-family="sans-serif" transform="matrix(1,0,0,1,0,15)" stroke-linecap="butt">
      <text x="143.3232" xml:space="preserve" y="244.7139" clip-path="url(#clipPath2)" stroke="none">0         1</text>
      <path fill="none" d="M120 225 L210 225 L187.5 255 L142.5 255 Z" clip-path="url(#clipPath2)" fill-rule="evenodd"/>
    </g>
    <g fill="aqua" text-rendering="geometricPrecision" shape-rendering="geometricPrecision" transform="matrix(1,0,0,1,0,15)" stroke="aqua">
      <path d="M150 285 L240 285 L217.5 315 L172.5 315 Z" fill-rule="evenodd" clip-path="url(#clipPath2)" stroke="none"/>
    </g>
    <g text-rendering="geometricPrecision" stroke-miterlimit="1.45" shape-rendering="geometricPrecision" font-family="sans-serif" transform="matrix(1,0,0,1,0,15)" stroke-linecap="butt">
      <text x="173.3232" xml:space="preserve" y="304.7139" clip-path="url(#clipPath2)" stroke="none">0         1</text>
      <path fill="none" d="M150 285 L240 285 L217.5 315 L172.5 315 Z" clip-path="url(#clipPath2)" fill-rule="evenodd"/>
    </g>
    <g fill="aqua" text-rendering="geometricPrecision" shape-rendering="geometricPrecision" transform="matrix(1,0,0,1,0,15)" stroke="aqua">
      <path d="M90 165 L180 165 L157.5 195 L112.5 195 Z" fill-rule="evenodd" clip-path="url(#clipPath2)" stroke="none"/>
    </g>
    <g text-rendering="geometricPrecision" stroke-miterlimit="1.45" shape-rendering="geometricPrecision" font-family="sans-serif" transform="matrix(1,0,0,1,0,15)" stroke-linecap="butt">
      <text x="122.332" xml:space="preserve" y="184.7139" clip-path="url(#clipPath2)" stroke="none">ADD</text>
      <path fill="none" d="M90 165 L180 165 L157.5 195 L112.5 195 Z" clip-path="url(#clipPath2)" fill-rule="evenodd"/>
    </g>
    <g fill="aqua" text-rendering="geometricPrecision" shape-rendering="geometricPrecision" transform="matrix(1,0,0,1,0,15)" stroke="aqua">
      <rect x="150" width="30" height="30" y="105" clip-path="url(#clipPath2)" stroke="none"/>
    </g>
    <g text-rendering="geometricPrecision" stroke-miterlimit="1.45" shape-rendering="geometricPrecision" font-family="sans-serif" transform="matrix(1,0,0,1,0,15)" stroke-linecap="butt">
      <text x="161.6631" xml:space="preserve" y="124.7139" clip-path="url(#clipPath2)" stroke="none">1</text>
      <rect fill="none" x="150" width="30" height="30" y="105" clip-path="url(#clipPath2)"/>
    </g>
    <g fill="aqua" text-rendering="geometricPrecision" shape-rendering="geometricPrecision" transform="matrix(1,0,0,1,0,15)" stroke="aqua">
      <rect x="375" width="30" height="30" y="345" clip-path="url(#clipPath2)" stroke="none"/>
    </g>
    <g text-rendering="geometricPrecision" stroke-miterlimit="1.45" shape-rendering="geometricPrecision" font-family="sans-serif" transform="matrix(1,0,0,1,0,15)" stroke-linecap="butt">
      <text x="381" xml:space="preserve" y="364.7139" clip-path="url(#clipPath2)" stroke="none">OR</text>
      <rect fill="none" x="375" width="30" height="30" y="345" clip-path="url(#clipPath2)"/>
    </g>
    <g fill="lime" text-rendering="geometricPrecision" shape-rendering="geometricPrecision" transform="matrix(1,0,0,1,0,15)" stroke="lime">
      <path d="M20 75 L28 60 L92 60 L100 75 L92 90 L28 90 Z" fill-rule="evenodd" clip-path="url(#clipPath2)" stroke="none"/>
    </g>
    <g text-rendering="geometricPrecision" stroke-miterlimit="1.45" shape-rendering="geometricPrecision" font-family="sans-serif" transform="matrix(1,0,0,1,0,15)" stroke-linecap="butt">
      <text x="29.9941" xml:space="preserve" y="79.7139" clip-path="url(#clipPath2)" stroke="none">DATA BUS</text>
      <path fill="none" d="M20 75 L28 60 L92 60 L100 75 L92 90 L28 90 Z" clip-path="url(#clipPath2)" fill-rule="evenodd"/>
    </g>
    <g fill="lime" text-rendering="geometricPrecision" shape-rendering="geometricPrecision" transform="matrix(1,0,0,1,0,15)" stroke="lime">
      <path d="M260 150 L268 135 L332 135 L340 150 L332 165 L268 165 Z" fill-rule="evenodd" clip-path="url(#clipPath2)" stroke="none"/>
    </g>
    <g text-rendering="geometricPrecision" stroke-miterlimit="1.45" shape-rendering="geometricPrecision" font-family="sans-serif" transform="matrix(1,0,0,1,0,15)" stroke-linecap="butt">
      <text x="270" xml:space="preserve" y="154.7139" clip-path="url(#clipPath2)" stroke="none">TMA_Write</text>
      <path fill="none" d="M260 150 L268 135 L332 135 L340 150 L332 165 L268 165 Z" clip-path="url(#clipPath2)" fill-rule="evenodd"/>
    </g>
    <g fill="aqua" text-rendering="geometricPrecision" shape-rendering="geometricPrecision" transform="matrix(1,0,0,1,0,15)" stroke="aqua">
      <rect x="270" width="30" height="30" y="285" clip-path="url(#clipPath2)" stroke="none"/>
    </g>
    <g text-rendering="geometricPrecision" stroke-miterlimit="1.45" shape-rendering="geometricPrecision" font-family="sans-serif" transform="matrix(1,0,0,1,0,15)" stroke-linecap="butt">
      <text x="276" xml:space="preserve" y="304.7139" clip-path="url(#clipPath2)" stroke="none">OR</text>
      <rect fill="none" x="270" width="30" height="30" y="285" clip-path="url(#clipPath2)"/>
      <path fill="none" d="M465 480 L600 480 L600 180 L525 105 L525 68" clip-path="url(#clipPath2)"/>
      <path d="M525 60 L520 72 L525 69 L530 72 Z" clip-path="url(#clipPath2)" stroke="none"/>
      <text x="529" xml:space="preserve" y="84.1895" clip-path="url(#clipPath2)" stroke="none">Set IF flag</text>
      <path fill="none" d="M412.5 480 L427 480" clip-path="url(#clipPath2)"/>
      <path d="M435 480 L423 475 L426 480 L423 485 Z" clip-path="url(#clipPath2)" stroke="none"/>
      <path fill="none" stroke-dasharray="6,2" d="M450 209.9854 L450 375 L450 397" clip-path="url(#clipPath2)"/>
      <path stroke-dasharray="6,2" d="M450 405 L455 393 L450 396 L445 393 Z" clip-path="url(#clipPath2)" stroke="none"/>
      <path fill="none" d="M450 435 L450 457" clip-path="url(#clipPath2)"/>
      <path d="M450 465 L455 453 L450 456 L445 453 Z" clip-path="url(#clipPath2)" stroke="none"/>
      <path fill="none" stroke-dasharray="6,2" d="M450 209.9854 L450 240 L206.7811 240" clip-path="url(#clipPath2)"/>
      <path stroke-dasharray="6,2" d="M198.7811 240 L210.7811 245 L207.7811 240 L210.7811 235 Z" clip-path="url(#clipPath2)" stroke="none"/>
      <path fill="none" d="M165 254.9879 L165 276.9785" clip-path="url(#clipPath2)"/>
      <path d="M165 284.9785 L170 272.9785 L165 275.9785 L160 272.9785 Z" clip-path="url(#clipPath2)" stroke="none"/>
      <path fill="none" d="M225 30.0278 L225 270 L225 276.9609" clip-path="url(#clipPath2)"/>
      <path d="M225 284.9609 L230 272.9609 L225 275.9609 L220 272.9609 Z" clip-path="url(#clipPath2)" stroke="none"/>
      <path fill="none" d="M195 314.9707 L195 337" clip-path="url(#clipPath2)"/>
      <path d="M195 345 L200 333 L195 336 L190 333 Z" clip-path="url(#clipPath2)" stroke="none"/>
      <path fill="none" d="M75 360 L60 360 L60 135 L105 135 L105 156.9785" clip-path="url(#clipPath2)"/>
      <path d="M105 164.9785 L110 152.9785 L105 155.9785 L100 152.9785 Z" clip-path="url(#clipPath2)" stroke="none"/>
      <path fill="none" stroke-dasharray="6,2" d="M101.2061 180 L90 180 L15 255 L15 405 L90 480 L359.5 480" clip-path="url(#clipPath2)"/>
      <path stroke-dasharray="6,2" d="M367.5 480 L355.5 475 L358.5 480 L355.5 485 Z" clip-path="url(#clipPath2)" stroke="none"/>
      <text x="196.5137" xml:space="preserve" y="473.3633" clip-path="url(#clipPath2)" stroke="none">Carry bit 7</text>
      <path fill="none" d="M135 194.9932 L135 216.9941" clip-path="url(#clipPath2)"/>
      <path d="M135 224.9941 L140 212.9941 L135 215.9941 L130 212.9941 Z" clip-path="url(#clipPath2)" stroke="none"/>
      <path fill="none" d="M165 135 L165 156.9707" clip-path="url(#clipPath2)"/>
      <path d="M165 164.9707 L170 152.9707 L165 155.9707 L160 152.9707 Z" clip-path="url(#clipPath2)" stroke="none"/>
      <path fill="none" d="M337.5 420 L390 420 L390 383" clip-path="url(#clipPath2)"/>
      <path d="M390 375 L385 387 L390 384 L395 387 Z" clip-path="url(#clipPath2)" stroke="none"/>
      <path fill="none" stroke-dasharray="6,2" d="M450 210.0256 L450 360 L413 360" clip-path="url(#clipPath2)"/>
      <path stroke-dasharray="6,2" d="M405 360 L417 365 L414 360 L417 355 Z" clip-path="url(#clipPath2)" stroke="none"/>
      <path fill="none" d="M465 480 L600 480 L600 300 L390 300 L390 337" clip-path="url(#clipPath2)"/>
      <path d="M390 345 L395 333 L390 336 L385 333 Z" clip-path="url(#clipPath2)" stroke="none"/>
      <text x="465.6533" xml:space="preserve" y="278.6621" clip-path="url(#clipPath2)" stroke="none">Load TIMA</text>
      <text x="468.668" xml:space="preserve" y="293.3633" clip-path="url(#clipPath2)" stroke="none">from TMA</text>
      <path fill="none" d="M375 360 L323 360" clip-path="url(#clipPath2)"/>
      <path d="M315 360 L327 365 L324 360 L327 355 Z" clip-path="url(#clipPath2)" stroke="none"/>
      <text x="326.3174" xml:space="preserve" y="353.3633" clip-path="url(#clipPath2)" stroke="none">Enable</text>
      <path fill="none" d="M99.9792 75 L195 75 L195 216.9634" clip-path="url(#clipPath2)"/>
      <path d="M195 224.9634 L200 212.9634 L195 215.9634 L190 212.9634 Z" clip-path="url(#clipPath2)" stroke="none"/>
      <path fill="none" d="M99.9792 75 L195 75 L195 38" clip-path="url(#clipPath2)"/>
      <path d="M195 30 L190 42 L195 39 L200 42 Z" clip-path="url(#clipPath2)" stroke="none"/>
      <path fill="none" d="M300 134.9823 L300 37.9819" clip-path="url(#clipPath2)"/>
      <path d="M300 29.9819 L295 41.9819 L300 38.9819 L305 41.9819 Z" clip-path="url(#clipPath2)" stroke="none"/>
      <text x="304" xml:space="preserve" y="87.2139" clip-path="url(#clipPath2)" stroke="none">Latch</text>
      <path fill="none" d="M465 480 L600 480 L600 300 L308 300" clip-path="url(#clipPath2)"/>
      <path d="M300 300 L312 305 L309 300 L312 295 Z" clip-path="url(#clipPath2)" stroke="none"/>
      <text x="507.125" xml:space="preserve" y="458.6621" clip-path="url(#clipPath2)" stroke="none">Set IF flag</text>
      <text x="477.125" xml:space="preserve" y="473.3633" clip-path="url(#clipPath2)" stroke="none">Load TIMA from TMA</text>
      <path fill="none" d="M270 300 L236.728 300" clip-path="url(#clipPath2)"/>
      <path d="M228.728 300 L240.728 305 L237.728 300 L240.728 295 Z" clip-path="url(#clipPath2)" stroke="none"/>
    </g>
  </g>
</svg>
