<?xml version="1.0" encoding="UTF-8"?><svg xmlns="http://www.w3.org/2000/svg" xmlns:xlink="http://www.w3.org/1999/xlink" fill-opacity="1" color-rendering="auto" color-interpolation="auto" text-rendering="auto" stroke="black" stroke-linecap="square" width="645" stroke-miterlimit="10" shape-rendering="auto" stroke-opacity="1" fill="black" stroke-dasharray="none" font-weight="normal" stroke-width="1" height="449" font-family="'Dialog'" font-style="normal" stroke-linejoin="miter" font-size="12px" stroke-dashoffset="0" image-rendering="auto">
  <!--Generated by ySVG 2.5-->
  <defs id="genericDefs"/>
  <g>
    <defs id="defs1">
      <clipPath clipPathUnits="userSpaceOnUse" id="clipPath1">
        <path d="M0 0 L645 0 L645 449 L0 449 L0 0 Z"/>
      </clipPath>
      <clipPath clipPathUnits="userSpaceOnUse" id="clipPath2">
        <path d="M120 114 L765 114 L765 563 L120 563 L120 114 Z"/>
      </clipPath>
    </defs>
    <g fill="white" text-rendering="geometricPrecision" shape-rendering="geometricPrecision" transform="translate(-120,-114)" stroke="white">
      <rect x="120" width="645" height="449" y="114" clip-path="url(#clipPath2)" stroke="none"/>
    </g>
    <g fill="rgb(204,255,255)" text-rendering="geometricPrecision" shape-rendering="geometricPrecision" transform="matrix(1,0,0,1,-120,-114)" stroke="rgb(204,255,255)">
      <rect x="330" width="130" height="150" y="374.88" clip-path="url(#clipPath2)" stroke="none"/>
    </g>
    <g text-rendering="geometricPrecision" stroke-miterlimit="1.45" shape-rendering="geometricPrecision" font-family="sans-serif" transform="matrix(1,0,0,1,-120,-114)" stroke-linecap="butt">
      <text x="338.9639" xml:space="preserve" y="542.9445" clip-path="url(#clipPath2)" stroke="none">Falling edge detector</text>
      <rect x="330" y="374.88" clip-path="url(#clipPath2)" fill="none" width="130" stroke-dasharray="12,4" height="150" stroke-width="2"/>
    </g>
    <g fill="white" text-rendering="geometricPrecision" shape-rendering="geometricPrecision" transform="matrix(1,0,0,1,-120,-114)" stroke="white">
      <rect x="345" width="30" height="30" y="195" clip-path="url(#clipPath2)" stroke="none"/>
    </g>
    <g text-rendering="geometricPrecision" stroke-miterlimit="1.45" shape-rendering="geometricPrecision" font-family="sans-serif" transform="matrix(1,0,0,1,-120,-114)" stroke-linecap="butt">
      <text x="356.6631" xml:space="preserve" y="214.7139" clip-path="url(#clipPath2)" stroke="none">0</text>
      <rect fill="none" x="345" width="30" height="30" y="195" clip-path="url(#clipPath2)"/>
    </g>
    <g fill="white" text-rendering="geometricPrecision" shape-rendering="geometricPrecision" transform="matrix(1,0,0,1,-120,-114)" stroke="white">
      <rect x="315" width="30" height="30" y="195" clip-path="url(#clipPath2)" stroke="none"/>
    </g>
    <g text-rendering="geometricPrecision" stroke-miterlimit="1.45" shape-rendering="geometricPrecision" font-family="sans-serif" transform="matrix(1,0,0,1,-120,-114)" stroke-linecap="butt">
      <text x="326.6631" xml:space="preserve" y="214.7139" clip-path="url(#clipPath2)" stroke="none">1</text>
      <rect fill="none" x="315" width="30" height="30" y="195" clip-path="url(#clipPath2)"/>
    </g>
    <g fill="white" text-rendering="geometricPrecision" shape-rendering="geometricPrecision" transform="matrix(1,0,0,1,-120,-114)" stroke="white">
      <rect x="285" width="30" height="30" y="195" clip-path="url(#clipPath2)" stroke="none"/>
    </g>
    <g text-rendering="geometricPrecision" stroke-miterlimit="1.45" shape-rendering="geometricPrecision" font-family="sans-serif" transform="matrix(1,0,0,1,-120,-114)" stroke-linecap="butt">
      <text x="296.6631" xml:space="preserve" y="214.7139" clip-path="url(#clipPath2)" stroke="none">2</text>
      <rect fill="none" x="285" width="30" height="30" y="195" clip-path="url(#clipPath2)"/>
    </g>
    <g fill="white" text-rendering="geometricPrecision" shape-rendering="geometricPrecision" transform="matrix(1,0,0,1,-120,-114)" stroke="white">
      <rect x="255" width="30" height="30" y="195" clip-path="url(#clipPath2)" stroke="none"/>
    </g>
    <g text-rendering="geometricPrecision" stroke-miterlimit="1.45" shape-rendering="geometricPrecision" font-family="sans-serif" transform="matrix(1,0,0,1,-120,-114)" stroke-linecap="butt">
      <text x="266.6631" xml:space="preserve" y="214.7139" clip-path="url(#clipPath2)" stroke="none">3</text>
      <rect fill="none" x="255" width="30" height="30" y="195" clip-path="url(#clipPath2)"/>
    </g>
    <g fill="white" text-rendering="geometricPrecision" shape-rendering="geometricPrecision" transform="matrix(1,0,0,1,-120,-114)" stroke="white">
      <rect x="225" width="30" height="30" y="195" clip-path="url(#clipPath2)" stroke="none"/>
    </g>
    <g text-rendering="geometricPrecision" stroke-miterlimit="1.45" shape-rendering="geometricPrecision" font-family="sans-serif" transform="matrix(1,0,0,1,-120,-114)" stroke-linecap="butt">
      <text x="236.6631" xml:space="preserve" y="214.7139" clip-path="url(#clipPath2)" stroke="none">4</text>
      <rect fill="none" x="225" width="30" height="30" y="195" clip-path="url(#clipPath2)"/>
    </g>
    <g fill="white" text-rendering="geometricPrecision" shape-rendering="geometricPrecision" transform="matrix(1,0,0,1,-120,-114)" stroke="white">
      <rect x="195" width="30" height="30" y="195" clip-path="url(#clipPath2)" stroke="none"/>
    </g>
    <g text-rendering="geometricPrecision" stroke-miterlimit="1.45" shape-rendering="geometricPrecision" font-family="sans-serif" transform="matrix(1,0,0,1,-120,-114)" stroke-linecap="butt">
      <text x="206.6631" xml:space="preserve" y="214.7139" clip-path="url(#clipPath2)" stroke="none">5</text>
      <rect fill="none" x="195" width="30" height="30" y="195" clip-path="url(#clipPath2)"/>
    </g>
    <g fill="white" text-rendering="geometricPrecision" shape-rendering="geometricPrecision" transform="matrix(1,0,0,1,-120,-114)" stroke="white">
      <rect x="165" width="30" height="30" y="195" clip-path="url(#clipPath2)" stroke="none"/>
    </g>
    <g text-rendering="geometricPrecision" stroke-miterlimit="1.45" shape-rendering="geometricPrecision" font-family="sans-serif" transform="matrix(1,0,0,1,-120,-114)" stroke-linecap="butt">
      <text x="176.6631" xml:space="preserve" y="214.7139" clip-path="url(#clipPath2)" stroke="none">6</text>
      <rect fill="none" x="165" width="30" height="30" y="195" clip-path="url(#clipPath2)"/>
    </g>
    <g fill="white" text-rendering="geometricPrecision" shape-rendering="geometricPrecision" transform="matrix(1,0,0,1,-120,-114)" stroke="white">
      <rect x="135" width="30" height="30" y="195" clip-path="url(#clipPath2)" stroke="none"/>
    </g>
    <g text-rendering="geometricPrecision" stroke-miterlimit="1.45" shape-rendering="geometricPrecision" font-family="sans-serif" transform="matrix(1,0,0,1,-120,-114)" stroke-linecap="butt">
      <text x="146.6631" xml:space="preserve" y="214.7139" clip-path="url(#clipPath2)" stroke="none">7</text>
      <rect fill="none" x="135" width="30" height="30" y="195" clip-path="url(#clipPath2)"/>
    </g>
    <g fill="white" text-rendering="geometricPrecision" shape-rendering="geometricPrecision" transform="matrix(1,0,0,1,-120,-114)" stroke="white">
      <rect x="585" width="30" height="30" y="195" clip-path="url(#clipPath2)" stroke="none"/>
    </g>
    <g text-rendering="geometricPrecision" stroke-miterlimit="1.45" shape-rendering="geometricPrecision" font-family="sans-serif" transform="matrix(1,0,0,1,-120,-114)" stroke-linecap="butt">
      <text x="596.6631" xml:space="preserve" y="214.7139" clip-path="url(#clipPath2)" stroke="none">0</text>
      <rect fill="none" x="585" width="30" height="30" y="195" clip-path="url(#clipPath2)"/>
    </g>
    <g fill="white" text-rendering="geometricPrecision" shape-rendering="geometricPrecision" transform="matrix(1,0,0,1,-120,-114)" stroke="white">
      <rect x="555" width="30" height="30" y="195" clip-path="url(#clipPath2)" stroke="none"/>
    </g>
    <g text-rendering="geometricPrecision" stroke-miterlimit="1.45" shape-rendering="geometricPrecision" font-family="sans-serif" transform="matrix(1,0,0,1,-120,-114)" stroke-linecap="butt">
      <text x="566.6631" xml:space="preserve" y="214.7139" clip-path="url(#clipPath2)" stroke="none">1</text>
      <rect fill="none" x="555" width="30" height="30" y="195" clip-path="url(#clipPath2)"/>
    </g>
    <g fill="white" text-rendering="geometricPrecision" shape-rendering="geometricPrecision" transform="matrix(1,0,0,1,-120,-114)" stroke="white">
      <rect x="525" width="30" height="30" y="195" clip-path="url(#clipPath2)" stroke="none"/>
    </g>
    <g text-rendering="geometricPrecision" stroke-miterlimit="1.45" shape-rendering="geometricPrecision" font-family="sans-serif" transform="matrix(1,0,0,1,-120,-114)" stroke-linecap="butt">
      <text x="536.6631" xml:space="preserve" y="214.7139" clip-path="url(#clipPath2)" stroke="none">2</text>
      <rect fill="none" x="525" width="30" height="30" y="195" clip-path="url(#clipPath2)"/>
    </g>
    <g fill="white" text-rendering="geometricPrecision" shape-rendering="geometricPrecision" transform="matrix(1,0,0,1,-120,-114)" stroke="white">
      <rect x="495" width="30" height="30" y="195" clip-path="url(#clipPath2)" stroke="none"/>
    </g>
    <g text-rendering="geometricPrecision" stroke-miterlimit="1.45" shape-rendering="geometricPrecision" font-family="sans-serif" transform="matrix(1,0,0,1,-120,-114)" stroke-linecap="butt">
      <text x="506.6631" xml:space="preserve" y="214.7139" clip-path="url(#clipPath2)" stroke="none">3</text>
      <rect fill="none" x="495" width="30" height="30" y="195" clip-path="url(#clipPath2)"/>
    </g>
    <g fill="white" text-rendering="geometricPrecision" shape-rendering="geometricPrecision" transform="matrix(1,0,0,1,-120,-114)" stroke="white">
      <rect x="465" width="30" height="30" y="195" clip-path="url(#clipPath2)" stroke="none"/>
    </g>
    <g text-rendering="geometricPrecision" stroke-miterlimit="1.45" shape-rendering="geometricPrecision" font-family="sans-serif" transform="matrix(1,0,0,1,-120,-114)" stroke-linecap="butt">
      <text x="476.6631" xml:space="preserve" y="214.7139" clip-path="url(#clipPath2)" stroke="none">4</text>
      <rect fill="none" x="465" width="30" height="30" y="195" clip-path="url(#clipPath2)"/>
    </g>
    <g fill="white" text-rendering="geometricPrecision" shape-rendering="geometricPrecision" transform="matrix(1,0,0,1,-120,-114)" stroke="white">
      <rect x="435" width="30" height="30" y="195" clip-path="url(#clipPath2)" stroke="none"/>
    </g>
    <g text-rendering="geometricPrecision" stroke-miterlimit="1.45" shape-rendering="geometricPrecision" font-family="sans-serif" transform="matrix(1,0,0,1,-120,-114)" stroke-linecap="butt">
      <text x="446.6631" xml:space="preserve" y="214.7139" clip-path="url(#clipPath2)" stroke="none">5</text>
      <rect fill="none" x="435" width="30" height="30" y="195" clip-path="url(#clipPath2)"/>
    </g>
    <g fill="white" text-rendering="geometricPrecision" shape-rendering="geometricPrecision" transform="matrix(1,0,0,1,-120,-114)" stroke="white">
      <rect x="405" width="30" height="30" y="195" clip-path="url(#clipPath2)" stroke="none"/>
    </g>
    <g text-rendering="geometricPrecision" stroke-miterlimit="1.45" shape-rendering="geometricPrecision" font-family="sans-serif" transform="matrix(1,0,0,1,-120,-114)" stroke-linecap="butt">
      <text x="416.6631" xml:space="preserve" y="214.7139" clip-path="url(#clipPath2)" stroke="none">6</text>
      <rect fill="none" x="405" width="30" height="30" y="195" clip-path="url(#clipPath2)"/>
    </g>
    <g fill="white" text-rendering="geometricPrecision" shape-rendering="geometricPrecision" transform="matrix(1,0,0,1,-120,-114)" stroke="white">
      <rect x="375" width="30" height="30" y="195" clip-path="url(#clipPath2)" stroke="none"/>
    </g>
    <g text-rendering="geometricPrecision" stroke-miterlimit="1.45" shape-rendering="geometricPrecision" font-family="sans-serif" transform="matrix(1,0,0,1,-120,-114)" stroke-linecap="butt">
      <text x="386.6631" xml:space="preserve" y="214.7139" clip-path="url(#clipPath2)" stroke="none">7</text>
      <rect fill="none" x="375" width="30" height="30" y="195" clip-path="url(#clipPath2)"/>
    </g>
    <g fill="silver" text-rendering="geometricPrecision" shape-rendering="geometricPrecision" transform="matrix(1,0,0,1,-120,-114)" stroke="silver">
      <path d="M135 195 L195 165 L315 165 L375 195 Z" fill-rule="evenodd" clip-path="url(#clipPath2)" stroke="none"/>
    </g>
    <g text-rendering="geometricPrecision" stroke-miterlimit="1.45" shape-rendering="geometricPrecision" font-family="sans-serif" transform="matrix(1,0,0,1,-120,-114)" stroke-linecap="butt">
      <text x="244.998" xml:space="preserve" y="184.7139" clip-path="url(#clipPath2)" stroke="none">DIV</text>
      <path fill="none" d="M135 195 L195 165 L315 165 L375 195 Z" clip-path="url(#clipPath2)" fill-rule="evenodd"/>
    </g>
    <g fill="lime" text-rendering="geometricPrecision" shape-rendering="geometricPrecision" transform="matrix(1,0,0,1,-120,-114)" stroke="lime">
      <circle r="25" clip-path="url(#clipPath2)" cx="720" cy="210" stroke="none"/>
    </g>
    <g text-rendering="geometricPrecision" stroke-miterlimit="1.45" shape-rendering="geometricPrecision" font-family="sans-serif" transform="matrix(1,0,0,1,-120,-114)" stroke-linecap="butt">
      <text x="699.9961" xml:space="preserve" y="207.3633" clip-path="url(#clipPath2)" stroke="none">System</text>
      <text x="708.3281" xml:space="preserve" y="222.0645" clip-path="url(#clipPath2)" stroke="none">CLK</text>
      <circle fill="none" r="25" clip-path="url(#clipPath2)" cx="720" cy="210"/>
    </g>
    <g fill="lime" text-rendering="geometricPrecision" shape-rendering="geometricPrecision" transform="matrix(1,0,0,1,-120,-114)" stroke="lime">
      <path d="M690 150 L696 135 L744 135 L750 150 L744 165 L696 165 Z" fill-rule="evenodd" clip-path="url(#clipPath2)" stroke="none"/>
    </g>
    <g text-rendering="geometricPrecision" stroke-miterlimit="1.45" shape-rendering="geometricPrecision" font-family="sans-serif" transform="matrix(1,0,0,1,-120,-114)" stroke-linecap="butt">
      <text x="692.6631" xml:space="preserve" y="154.7139" clip-path="url(#clipPath2)" stroke="none">DIV_Write</text>
      <path fill="none" d="M690 150 L696 135 L744 135 L750 150 L744 165 L696 165 Z" clip-path="url(#clipPath2)" fill-rule="evenodd"/>
    </g>
    <g fill="aqua" text-rendering="geometricPrecision" shape-rendering="geometricPrecision" transform="matrix(1,0,0,1,-120,-114)" stroke="aqua">
      <rect x="405" width="30" height="30" y="315" clip-path="url(#clipPath2)" stroke="none"/>
    </g>
    <g text-rendering="geometricPrecision" stroke-miterlimit="1.45" shape-rendering="geometricPrecision" font-family="sans-serif" transform="matrix(1,0,0,1,-120,-114)" stroke-linecap="butt">
      <text x="407.332" xml:space="preserve" y="334.7139" clip-path="url(#clipPath2)" stroke="none">AND</text>
      <rect fill="none" x="405" width="30" height="30" y="315" clip-path="url(#clipPath2)"/>
    </g>
    <g fill="white" text-rendering="geometricPrecision" shape-rendering="geometricPrecision" transform="matrix(1,0,0,1,-120,-114)" stroke="white">
      <rect x="705" width="30" height="30" y="360" clip-path="url(#clipPath2)" stroke="none"/>
    </g>
    <g text-rendering="geometricPrecision" stroke-miterlimit="1.45" shape-rendering="geometricPrecision" font-family="sans-serif" transform="matrix(1,0,0,1,-120,-114)" stroke-linecap="butt">
      <text x="716.6631" xml:space="preserve" y="379.7139" clip-path="url(#clipPath2)" stroke="none">0</text>
      <rect fill="none" x="705" width="30" height="30" y="360" clip-path="url(#clipPath2)"/>
    </g>
    <g fill="white" text-rendering="geometricPrecision" shape-rendering="geometricPrecision" transform="matrix(1,0,0,1,-120,-114)" stroke="white">
      <rect x="675" width="30" height="30" y="360" clip-path="url(#clipPath2)" stroke="none"/>
    </g>
    <g text-rendering="geometricPrecision" stroke-miterlimit="1.45" shape-rendering="geometricPrecision" font-family="sans-serif" transform="matrix(1,0,0,1,-120,-114)" stroke-linecap="butt">
      <text x="686.6631" xml:space="preserve" y="379.7139" clip-path="url(#clipPath2)" stroke="none">1</text>
      <rect fill="none" x="675" width="30" height="30" y="360" clip-path="url(#clipPath2)"/>
    </g>
    <g fill="white" text-rendering="geometricPrecision" shape-rendering="geometricPrecision" transform="matrix(1,0,0,1,-120,-114)" stroke="white">
      <rect x="645" width="30" height="30" y="360" clip-path="url(#clipPath2)" stroke="none"/>
    </g>
    <g text-rendering="geometricPrecision" stroke-miterlimit="1.45" shape-rendering="geometricPrecision" font-family="sans-serif" transform="matrix(1,0,0,1,-120,-114)" stroke-linecap="butt">
      <text x="656.6631" xml:space="preserve" y="379.7139" clip-path="url(#clipPath2)" stroke="none">2</text>
      <rect fill="none" x="645" width="30" height="30" y="360" clip-path="url(#clipPath2)"/>
    </g>
    <g fill="white" text-rendering="geometricPrecision" shape-rendering="geometricPrecision" transform="matrix(1,0,0,1,-120,-114)" stroke="white">
      <rect x="615" width="30" height="30" y="360" clip-path="url(#clipPath2)" stroke="none"/>
    </g>
    <g text-rendering="geometricPrecision" stroke-miterlimit="1.45" shape-rendering="geometricPrecision" font-family="sans-serif" transform="matrix(1,0,0,1,-120,-114)" stroke-linecap="butt">
      <text x="626.6631" xml:space="preserve" y="379.7139" clip-path="url(#clipPath2)" stroke="none">3</text>
      <rect fill="none" x="615" width="30" height="30" y="360" clip-path="url(#clipPath2)"/>
    </g>
    <g fill="white" text-rendering="geometricPrecision" shape-rendering="geometricPrecision" transform="matrix(1,0,0,1,-120,-114)" stroke="white">
      <rect x="585" width="30" height="30" y="360" clip-path="url(#clipPath2)" stroke="none"/>
    </g>
    <g text-rendering="geometricPrecision" stroke-miterlimit="1.45" shape-rendering="geometricPrecision" font-family="sans-serif" transform="matrix(1,0,0,1,-120,-114)" stroke-linecap="butt">
      <text x="596.6631" xml:space="preserve" y="379.7139" clip-path="url(#clipPath2)" stroke="none">4</text>
      <rect fill="none" x="585" width="30" height="30" y="360" clip-path="url(#clipPath2)"/>
    </g>
    <g fill="white" text-rendering="geometricPrecision" shape-rendering="geometricPrecision" transform="matrix(1,0,0,1,-120,-114)" stroke="white">
      <rect x="555" width="30" height="30" y="360" clip-path="url(#clipPath2)" stroke="none"/>
    </g>
    <g text-rendering="geometricPrecision" stroke-miterlimit="1.45" shape-rendering="geometricPrecision" font-family="sans-serif" transform="matrix(1,0,0,1,-120,-114)" stroke-linecap="butt">
      <text x="566.6631" xml:space="preserve" y="379.7139" clip-path="url(#clipPath2)" stroke="none">5</text>
      <rect fill="none" x="555" width="30" height="30" y="360" clip-path="url(#clipPath2)"/>
    </g>
    <g fill="white" text-rendering="geometricPrecision" shape-rendering="geometricPrecision" transform="matrix(1,0,0,1,-120,-114)" stroke="white">
      <rect x="525" width="30" height="30" y="360" clip-path="url(#clipPath2)" stroke="none"/>
    </g>
    <g text-rendering="geometricPrecision" stroke-miterlimit="1.45" shape-rendering="geometricPrecision" font-family="sans-serif" transform="matrix(1,0,0,1,-120,-114)" stroke-linecap="butt">
      <text x="536.6631" xml:space="preserve" y="379.7139" clip-path="url(#clipPath2)" stroke="none">6</text>
      <rect fill="none" x="525" width="30" height="30" y="360" clip-path="url(#clipPath2)"/>
    </g>
    <g fill="white" text-rendering="geometricPrecision" shape-rendering="geometricPrecision" transform="matrix(1,0,0,1,-120,-114)" stroke="white">
      <rect x="495" width="30" height="30" y="360" clip-path="url(#clipPath2)" stroke="none"/>
    </g>
    <g text-rendering="geometricPrecision" stroke-miterlimit="1.45" shape-rendering="geometricPrecision" font-family="sans-serif" transform="matrix(1,0,0,1,-120,-114)" stroke-linecap="butt">
      <text x="506.6631" xml:space="preserve" y="379.7139" clip-path="url(#clipPath2)" stroke="none">7</text>
      <rect fill="none" x="495" width="30" height="30" y="360" clip-path="url(#clipPath2)"/>
    </g>
    <g fill="silver" text-rendering="geometricPrecision" shape-rendering="geometricPrecision" transform="matrix(1,0,0,1,-120,-114)" stroke="silver">
      <path d="M495 390 L735 390 L675 420 L555 420 Z" fill-rule="evenodd" clip-path="url(#clipPath2)" stroke="none"/>
    </g>
    <g text-rendering="geometricPrecision" stroke-miterlimit="1.45" shape-rendering="geometricPrecision" font-family="sans-serif" transform="matrix(1,0,0,1,-120,-114)" stroke-linecap="butt">
      <text x="603" xml:space="preserve" y="409.7139" clip-path="url(#clipPath2)" stroke="none">TAC</text>
      <path fill="none" d="M495 390 L735 390 L675 420 L555 420 Z" clip-path="url(#clipPath2)" fill-rule="evenodd"/>
    </g>
    <g fill="lime" text-rendering="geometricPrecision" shape-rendering="geometricPrecision" transform="matrix(1,0,0,1,-120,-114)" stroke="lime">
      <circle r="25" clip-path="url(#clipPath2)" cx="570" cy="495" stroke="none"/>
    </g>
    <g text-rendering="geometricPrecision" stroke-miterlimit="1.45" shape-rendering="geometricPrecision" font-family="sans-serif" transform="matrix(1,0,0,1,-120,-114)" stroke-linecap="butt">
      <text x="554.6689" xml:space="preserve" y="492.3633" clip-path="url(#clipPath2)" stroke="none">Timer</text>
      <text x="559.667" xml:space="preserve" y="507.0645" clip-path="url(#clipPath2)" stroke="none">INC</text>
      <circle fill="none" r="25" clip-path="url(#clipPath2)" cx="570" cy="495"/>
    </g>
    <g fill="aqua" text-rendering="geometricPrecision" shape-rendering="geometricPrecision" transform="matrix(1,0,0,1,-120,-114)" stroke="aqua">
      <rect x="397.5" width="45" height="30" y="420" clip-path="url(#clipPath2)" stroke="none"/>
    </g>
    <g text-rendering="geometricPrecision" stroke-miterlimit="1.45" shape-rendering="geometricPrecision" font-family="sans-serif" transform="matrix(1,0,0,1,-120,-114)" stroke-linecap="butt">
      <text x="404.6602" xml:space="preserve" y="439.7139" clip-path="url(#clipPath2)" stroke="none">Delay</text>
      <rect fill="none" x="397.5" width="45" height="30" y="420" clip-path="url(#clipPath2)"/>
    </g>
    <g fill="aqua" text-rendering="geometricPrecision" shape-rendering="geometricPrecision" transform="matrix(1,0,0,1,-120,-114)" stroke="aqua">
      <rect x="405" width="30" height="30" y="480" clip-path="url(#clipPath2)" stroke="none"/>
    </g>
    <g text-rendering="geometricPrecision" stroke-miterlimit="1.45" shape-rendering="geometricPrecision" font-family="sans-serif" transform="matrix(1,0,0,1,-120,-114)" stroke-linecap="butt">
      <text x="407.332" xml:space="preserve" y="499.7139" clip-path="url(#clipPath2)" stroke="none">AND</text>
      <rect fill="none" x="405" width="30" height="30" y="480" clip-path="url(#clipPath2)"/>
    </g>
    <g fill="aqua" text-rendering="geometricPrecision" shape-rendering="geometricPrecision" transform="matrix(1,0,0,1,-120,-114)" stroke="aqua">
      <rect x="345" width="30" height="30" y="420" clip-path="url(#clipPath2)" stroke="none"/>
    </g>
    <g text-rendering="geometricPrecision" stroke-miterlimit="1.45" shape-rendering="geometricPrecision" font-family="sans-serif" transform="matrix(1,0,0,1,-120,-114)" stroke-linecap="butt">
      <text x="347.335" xml:space="preserve" y="439.7139" clip-path="url(#clipPath2)" stroke="none">NOT</text>
      <rect fill="none" x="345" width="30" height="30" y="420" clip-path="url(#clipPath2)"/>
    </g>
    <g fill="aqua" text-rendering="geometricPrecision" shape-rendering="geometricPrecision" transform="matrix(1,0,0,1,-120,-114)" stroke="aqua">
      <path d="M315 255 L525 255 L472.5 285 L367.5 285 Z" fill-rule="evenodd" clip-path="url(#clipPath2)" stroke="none"/>
    </g>
    <g text-rendering="geometricPrecision" stroke-miterlimit="1.45" shape-rendering="geometricPrecision" font-family="sans-serif" transform="matrix(1,0,0,1,-120,-114)" stroke-linecap="butt">
      <text x="366.6445" xml:space="preserve" y="274.7139" clip-path="url(#clipPath2)" stroke="none">0        3        2        1</text>
      <path fill="none" d="M315 255 L525 255 L472.5 285 L367.5 285 Z" clip-path="url(#clipPath2)" fill-rule="evenodd"/>
      <path fill="none" d="M695 210 L623 210" clip-path="url(#clipPath2)"/>
      <path d="M615 210 L627 215 L624 210 L627 205 Z" clip-path="url(#clipPath2)" stroke="none"/>
      <text x="631.9873" xml:space="preserve" y="204.3633" clip-path="url(#clipPath2)" stroke="none">Increase</text>
      <path fill="none" d="M689.9707 150 L600 150 L600 187" clip-path="url(#clipPath2)"/>
      <path d="M600 195 L605 183 L600 186 L595 183 Z" clip-path="url(#clipPath2)" stroke="none"/>
      <text x="624.7637" xml:space="preserve" y="143.3633" clip-path="url(#clipPath2)" stroke="none">Reset</text>
      <path fill="none" d="M659.8134 360 L659.44 330 L443 330" clip-path="url(#clipPath2)"/>
      <path d="M435 330 L447 335 L444 330 L447 325 Z" clip-path="url(#clipPath2)" stroke="none"/>
      <text x="519.4329" xml:space="preserve" y="323.3633" clip-path="url(#clipPath2)" stroke="none">TAC.Enable</text>
      <path fill="none" d="M420 345 L420 375 L420 375 L420 412" clip-path="url(#clipPath2)"/>
      <path d="M420 420 L425 408 L420 411 L415 408 Z" clip-path="url(#clipPath2)" stroke="none"/>
      <path fill="none" d="M420 450 L420 472" clip-path="url(#clipPath2)"/>
      <path d="M420 480 L425 468 L420 471 L415 468 Z" clip-path="url(#clipPath2)" stroke="none"/>
      <path fill="none" d="M435 495 L537 495" clip-path="url(#clipPath2)"/>
      <path d="M545 495 L533 490 L536 495 L533 500 Z" clip-path="url(#clipPath2)" stroke="none"/>
      <path fill="none" d="M420 345 L420 385 L360 405 L360 412" clip-path="url(#clipPath2)"/>
      <path d="M360 420 L365 408 L360 411 L355 408 Z" clip-path="url(#clipPath2)" stroke="none"/>
      <path fill="none" d="M360 450 L360 495 L397 495" clip-path="url(#clipPath2)"/>
      <path d="M405 495 L393 490 L396 495 L393 500 Z" clip-path="url(#clipPath2)" stroke="none"/>
      <path fill="none" d="M690 360 L690 270 L506.739 270" clip-path="url(#clipPath2)"/>
      <path d="M498.739 270 L510.739 275 L507.739 270 L510.739 265 Z" clip-path="url(#clipPath2)" stroke="none"/>
      <text x="586.0586" xml:space="preserve" y="263.3633" clip-path="url(#clipPath2)" stroke="none">TAC.Freq</text>
      <path fill="none" d="M510 225 L510 246.36" clip-path="url(#clipPath2)"/>
      <path d="M510 254.36 L515 242.36 L510 245.36 L505 242.36 Z" clip-path="url(#clipPath2)" stroke="none"/>
      <path fill="none" d="M450 225 L450 247.021" clip-path="url(#clipPath2)"/>
      <path d="M450 255.021 L455 243.021 L450 246.021 L445 243.021 Z" clip-path="url(#clipPath2)" stroke="none"/>
      <path fill="none" d="M390 225 L390 247.021" clip-path="url(#clipPath2)"/>
      <path d="M390 255.021 L395 243.021 L390 246.021 L385 243.021 Z" clip-path="url(#clipPath2)" stroke="none"/>
      <path fill="none" d="M330 225 L330 246.9616" clip-path="url(#clipPath2)"/>
      <path d="M330 254.9616 L335 242.9616 L330 245.9616 L325 242.9616 Z" clip-path="url(#clipPath2)" stroke="none"/>
      <path fill="none" d="M720.0714 360 L720.5 270 L506.7597 270" clip-path="url(#clipPath2)"/>
      <path d="M498.7597 270 L510.7597 275 L507.7597 270 L510.7597 265 Z" clip-path="url(#clipPath2)" stroke="none"/>
      <path fill="none" d="M420 284.9707 L420 307" clip-path="url(#clipPath2)"/>
      <path d="M420 315 L425 303 L420 306 L415 303 Z" clip-path="url(#clipPath2)" stroke="none"/>
    </g>
  </g>
</svg>
