<?xml version="1.0" encoding="UTF-8"?><svg xmlns="http://www.w3.org/2000/svg" xmlns:xlink="http://www.w3.org/1999/xlink" fill-opacity="1" color-rendering="auto" color-interpolation="auto" text-rendering="auto" stroke="black" stroke-linecap="square" width="705" stroke-miterlimit="10" shape-rendering="auto" stroke-opacity="1" fill="black" stroke-dasharray="none" font-weight="normal" stroke-width="1" height="456" font-family="'Dialog'" font-style="normal" stroke-linejoin="miter" font-size="12px" stroke-dashoffset="0" image-rendering="auto">
  <!--Generated by ySVG 2.5-->
  <defs id="genericDefs"/>
  <g>
    <defs id="defs1">
      <clipPath clipPathUnits="userSpaceOnUse" id="clipPath1">
        <path d="M0 0 L705 0 L705 456 L0 456 L0 0 Z"/>
      </clipPath>
      <clipPath clipPathUnits="userSpaceOnUse" id="clipPath2">
        <path d="M120 114 L825 114 L825 570 L120 570 L120 114 Z"/>
      </clipPath>
    </defs>
    <g fill="white" text-rendering="geometricPrecision" shape-rendering="geometricPrecision" transform="translate(-120,-114)" stroke="white">
      <rect x="120" width="705" height="456" y="114" clip-path="url(#clipPath2)" stroke="none"/>
    </g>
    <g fill="white" text-rendering="geometricPrecision" shape-rendering="geometricPrecision" transform="matrix(1,0,0,1,-120,-114)" stroke="white">
      <rect x="345" width="30" height="30" y="195" clip-path="url(#clipPath2)" stroke="none"/>
    </g>
    <g text-rendering="geometricPrecision" stroke-miterlimit="1.45" shape-rendering="geometricPrecision" font-family="sans-serif" transform="matrix(1,0,0,1,-120,-114)" stroke-linecap="butt">
      <text x="356.6631" xml:space="preserve" y="214.7139" clip-path="url(#clipPath2)" stroke="none">0</text>
      <rect fill="none" x="345" width="30" height="30" y="195" clip-path="url(#clipPath2)"/>
    </g>
    <g fill="white" text-rendering="geometricPrecision" shape-rendering="geometricPrecision" transform="matrix(1,0,0,1,-120,-114)" stroke="white">
      <rect x="315" width="30" height="30" y="195" clip-path="url(#clipPath2)" stroke="none"/>
    </g>
    <g text-rendering="geometricPrecision" stroke-miterlimit="1.45" shape-rendering="geometricPrecision" font-family="sans-serif" transform="matrix(1,0,0,1,-120,-114)" stroke-linecap="butt">
      <text x="326.6631" xml:space="preserve" y="214.7139" clip-path="url(#clipPath2)" stroke="none">1</text>
      <rect fill="none" x="315" width="30" height="30" y="195" clip-path="url(#clipPath2)"/>
    </g>
    <g fill="white" text-rendering="geometricPrecision" shape-rendering="geometricPrecision" transform="matrix(1,0,0,1,-120,-114)" stroke="white">
      <rect x="285" width="30" height="30" y="195" clip-path="url(#clipPath2)" stroke="none"/>
    </g>
    <g text-rendering="geometricPrecision" stroke-miterlimit="1.45" shape-rendering="geometricPrecision" font-family="sans-serif" transform="matrix(1,0,0,1,-120,-114)" stroke-linecap="butt">
      <text x="296.6631" xml:space="preserve" y="214.7139" clip-path="url(#clipPath2)" stroke="none">2</text>
      <rect fill="none" x="285" width="30" height="30" y="195" clip-path="url(#clipPath2)"/>
    </g>
    <g fill="white" text-rendering="geometricPrecision" shape-rendering="geometricPrecision" transform="matrix(1,0,0,1,-120,-114)" stroke="white">
      <rect x="255" width="30" height="30" y="195" clip-path="url(#clipPath2)" stroke="none"/>
    </g>
    <g text-rendering="geometricPrecision" stroke-miterlimit="1.45" shape-rendering="geometricPrecision" font-family="sans-serif" transform="matrix(1,0,0,1,-120,-114)" stroke-linecap="butt">
      <text x="266.6631" xml:space="preserve" y="214.7139" clip-path="url(#clipPath2)" stroke="none">3</text>
      <rect fill="none" x="255" width="30" height="30" y="195" clip-path="url(#clipPath2)"/>
    </g>
    <g fill="white" text-rendering="geometricPrecision" shape-rendering="geometricPrecision" transform="matrix(1,0,0,1,-120,-114)" stroke="white">
      <rect x="225" width="30" height="30" y="195" clip-path="url(#clipPath2)" stroke="none"/>
    </g>
    <g text-rendering="geometricPrecision" stroke-miterlimit="1.45" shape-rendering="geometricPrecision" font-family="sans-serif" transform="matrix(1,0,0,1,-120,-114)" stroke-linecap="butt">
      <text x="236.6631" xml:space="preserve" y="214.7139" clip-path="url(#clipPath2)" stroke="none">4</text>
      <rect fill="none" x="225" width="30" height="30" y="195" clip-path="url(#clipPath2)"/>
    </g>
    <g fill="white" text-rendering="geometricPrecision" shape-rendering="geometricPrecision" transform="matrix(1,0,0,1,-120,-114)" stroke="white">
      <rect x="195" width="30" height="30" y="195" clip-path="url(#clipPath2)" stroke="none"/>
    </g>
    <g text-rendering="geometricPrecision" stroke-miterlimit="1.45" shape-rendering="geometricPrecision" font-family="sans-serif" transform="matrix(1,0,0,1,-120,-114)" stroke-linecap="butt">
      <text x="206.6631" xml:space="preserve" y="214.7139" clip-path="url(#clipPath2)" stroke="none">5</text>
      <rect fill="none" x="195" width="30" height="30" y="195" clip-path="url(#clipPath2)"/>
    </g>
    <g fill="white" text-rendering="geometricPrecision" shape-rendering="geometricPrecision" transform="matrix(1,0,0,1,-120,-114)" stroke="white">
      <rect x="165" width="30" height="30" y="195" clip-path="url(#clipPath2)" stroke="none"/>
    </g>
    <g text-rendering="geometricPrecision" stroke-miterlimit="1.45" shape-rendering="geometricPrecision" font-family="sans-serif" transform="matrix(1,0,0,1,-120,-114)" stroke-linecap="butt">
      <text x="176.6631" xml:space="preserve" y="214.7139" clip-path="url(#clipPath2)" stroke="none">6</text>
      <rect fill="none" x="165" width="30" height="30" y="195" clip-path="url(#clipPath2)"/>
    </g>
    <g fill="white" text-rendering="geometricPrecision" shape-rendering="geometricPrecision" transform="matrix(1,0,0,1,-120,-114)" stroke="white">
      <rect x="135" width="30" height="30" y="195" clip-path="url(#clipPath2)" stroke="none"/>
    </g>
    <g text-rendering="geometricPrecision" stroke-miterlimit="1.45" shape-rendering="geometricPrecision" font-family="sans-serif" transform="matrix(1,0,0,1,-120,-114)" stroke-linecap="butt">
      <text x="146.6631" xml:space="preserve" y="214.7139" clip-path="url(#clipPath2)" stroke="none">7</text>
      <rect fill="none" x="135" width="30" height="30" y="195" clip-path="url(#clipPath2)"/>
    </g>
    <g fill="white" text-rendering="geometricPrecision" shape-rendering="geometricPrecision" transform="matrix(1,0,0,1,-120,-114)" stroke="white">
      <rect x="585" width="30" height="30" y="195" clip-path="url(#clipPath2)" stroke="none"/>
    </g>
    <g text-rendering="geometricPrecision" stroke-miterlimit="1.45" shape-rendering="geometricPrecision" font-family="sans-serif" transform="matrix(1,0,0,1,-120,-114)" stroke-linecap="butt">
      <text x="596.6631" xml:space="preserve" y="214.7139" clip-path="url(#clipPath2)" stroke="none">0</text>
      <rect fill="none" x="585" width="30" height="30" y="195" clip-path="url(#clipPath2)"/>
    </g>
    <g fill="white" text-rendering="geometricPrecision" shape-rendering="geometricPrecision" transform="matrix(1,0,0,1,-120,-114)" stroke="white">
      <rect x="555" width="30" height="30" y="195" clip-path="url(#clipPath2)" stroke="none"/>
    </g>
    <g text-rendering="geometricPrecision" stroke-miterlimit="1.45" shape-rendering="geometricPrecision" font-family="sans-serif" transform="matrix(1,0,0,1,-120,-114)" stroke-linecap="butt">
      <text x="566.6631" xml:space="preserve" y="214.7139" clip-path="url(#clipPath2)" stroke="none">1</text>
      <rect fill="none" x="555" width="30" height="30" y="195" clip-path="url(#clipPath2)"/>
    </g>
    <g fill="white" text-rendering="geometricPrecision" shape-rendering="geometricPrecision" transform="matrix(1,0,0,1,-120,-114)" stroke="white">
      <rect x="525" width="30" height="30" y="195" clip-path="url(#clipPath2)" stroke="none"/>
    </g>
    <g text-rendering="geometricPrecision" stroke-miterlimit="1.45" shape-rendering="geometricPrecision" font-family="sans-serif" transform="matrix(1,0,0,1,-120,-114)" stroke-linecap="butt">
      <text x="536.6631" xml:space="preserve" y="214.7139" clip-path="url(#clipPath2)" stroke="none">2</text>
      <rect fill="none" x="525" width="30" height="30" y="195" clip-path="url(#clipPath2)"/>
    </g>
    <g fill="white" text-rendering="geometricPrecision" shape-rendering="geometricPrecision" transform="matrix(1,0,0,1,-120,-114)" stroke="white">
      <rect x="495" width="30" height="30" y="195" clip-path="url(#clipPath2)" stroke="none"/>
    </g>
    <g text-rendering="geometricPrecision" stroke-miterlimit="1.45" shape-rendering="geometricPrecision" font-family="sans-serif" transform="matrix(1,0,0,1,-120,-114)" stroke-linecap="butt">
      <text x="506.6631" xml:space="preserve" y="214.7139" clip-path="url(#clipPath2)" stroke="none">3</text>
      <rect fill="none" x="495" width="30" height="30" y="195" clip-path="url(#clipPath2)"/>
    </g>
    <g fill="white" text-rendering="geometricPrecision" shape-rendering="geometricPrecision" transform="matrix(1,0,0,1,-120,-114)" stroke="white">
      <rect x="465" width="30" height="30" y="195" clip-path="url(#clipPath2)" stroke="none"/>
    </g>
    <g text-rendering="geometricPrecision" stroke-miterlimit="1.45" shape-rendering="geometricPrecision" font-family="sans-serif" transform="matrix(1,0,0,1,-120,-114)" stroke-linecap="butt">
      <text x="476.6631" xml:space="preserve" y="214.7139" clip-path="url(#clipPath2)" stroke="none">4</text>
      <rect fill="none" x="465" width="30" height="30" y="195" clip-path="url(#clipPath2)"/>
    </g>
    <g fill="white" text-rendering="geometricPrecision" shape-rendering="geometricPrecision" transform="matrix(1,0,0,1,-120,-114)" stroke="white">
      <rect x="435" width="30" height="30" y="195" clip-path="url(#clipPath2)" stroke="none"/>
    </g>
    <g text-rendering="geometricPrecision" stroke-miterlimit="1.45" shape-rendering="geometricPrecision" font-family="sans-serif" transform="matrix(1,0,0,1,-120,-114)" stroke-linecap="butt">
      <text x="446.6631" xml:space="preserve" y="214.7139" clip-path="url(#clipPath2)" stroke="none">5</text>
      <rect fill="none" x="435" width="30" height="30" y="195" clip-path="url(#clipPath2)"/>
    </g>
    <g fill="white" text-rendering="geometricPrecision" shape-rendering="geometricPrecision" transform="matrix(1,0,0,1,-120,-114)" stroke="white">
      <rect x="405" width="30" height="30" y="195" clip-path="url(#clipPath2)" stroke="none"/>
    </g>
    <g text-rendering="geometricPrecision" stroke-miterlimit="1.45" shape-rendering="geometricPrecision" font-family="sans-serif" transform="matrix(1,0,0,1,-120,-114)" stroke-linecap="butt">
      <text x="416.6631" xml:space="preserve" y="214.7139" clip-path="url(#clipPath2)" stroke="none">6</text>
      <rect fill="none" x="405" width="30" height="30" y="195" clip-path="url(#clipPath2)"/>
    </g>
    <g fill="white" text-rendering="geometricPrecision" shape-rendering="geometricPrecision" transform="matrix(1,0,0,1,-120,-114)" stroke="white">
      <rect x="375" width="30" height="30" y="195" clip-path="url(#clipPath2)" stroke="none"/>
    </g>
    <g text-rendering="geometricPrecision" stroke-miterlimit="1.45" shape-rendering="geometricPrecision" font-family="sans-serif" transform="matrix(1,0,0,1,-120,-114)" stroke-linecap="butt">
      <text x="386.6631" xml:space="preserve" y="214.7139" clip-path="url(#clipPath2)" stroke="none">7</text>
      <rect fill="none" x="375" width="30" height="30" y="195" clip-path="url(#clipPath2)"/>
    </g>
    <g fill="silver" text-rendering="geometricPrecision" shape-rendering="geometricPrecision" transform="matrix(1,0,0,1,-120,-114)" stroke="silver">
      <path d="M135 195 L195 165 L315 165 L375 195 Z" fill-rule="evenodd" clip-path="url(#clipPath2)" stroke="none"/>
    </g>
    <g text-rendering="geometricPrecision" stroke-miterlimit="1.45" shape-rendering="geometricPrecision" font-family="sans-serif" transform="matrix(1,0,0,1,-120,-114)" stroke-linecap="butt">
      <text x="244.998" xml:space="preserve" y="184.7139" clip-path="url(#clipPath2)" stroke="none">DIV</text>
      <path fill="none" d="M135 195 L195 165 L315 165 L375 195 Z" clip-path="url(#clipPath2)" fill-rule="evenodd"/>
    </g>
    <g fill="lime" text-rendering="geometricPrecision" shape-rendering="geometricPrecision" transform="matrix(1,0,0,1,-120,-114)" stroke="lime">
      <circle r="25" clip-path="url(#clipPath2)" cx="720" cy="210" stroke="none"/>
    </g>
    <g text-rendering="geometricPrecision" stroke-miterlimit="1.45" shape-rendering="geometricPrecision" font-family="sans-serif" transform="matrix(1,0,0,1,-120,-114)" stroke-linecap="butt">
      <text x="699.9961" xml:space="preserve" y="207.3633" clip-path="url(#clipPath2)" stroke="none">System</text>
      <text x="708.3281" xml:space="preserve" y="222.0645" clip-path="url(#clipPath2)" stroke="none">CLK</text>
      <circle fill="none" r="25" clip-path="url(#clipPath2)" cx="720" cy="210"/>
    </g>
    <g fill="lime" text-rendering="geometricPrecision" shape-rendering="geometricPrecision" transform="matrix(1,0,0,1,-120,-114)" stroke="lime">
      <path d="M690 150 L696 135 L744 135 L750 150 L744 165 L696 165 Z" fill-rule="evenodd" clip-path="url(#clipPath2)" stroke="none"/>
    </g>
    <g text-rendering="geometricPrecision" stroke-miterlimit="1.45" shape-rendering="geometricPrecision" font-family="sans-serif" transform="matrix(1,0,0,1,-120,-114)" stroke-linecap="butt">
      <text x="692.6631" xml:space="preserve" y="154.7139" clip-path="url(#clipPath2)" stroke="none">DIV_Write</text>
      <path fill="none" d="M690 150 L696 135 L744 135 L750 150 L744 165 L696 165 Z" clip-path="url(#clipPath2)" fill-rule="evenodd"/>
    </g>
    <g fill="white" text-rendering="geometricPrecision" shape-rendering="geometricPrecision" transform="matrix(1,0,0,1,-120,-114)" stroke="white">
      <rect x="780" width="30" height="30" y="435" clip-path="url(#clipPath2)" stroke="none"/>
    </g>
    <g text-rendering="geometricPrecision" stroke-miterlimit="1.45" shape-rendering="geometricPrecision" font-family="sans-serif" transform="matrix(1,0,0,1,-120,-114)" stroke-linecap="butt">
      <text x="791.6631" xml:space="preserve" y="454.7139" clip-path="url(#clipPath2)" stroke="none">0</text>
      <rect fill="none" x="780" width="30" height="30" y="435" clip-path="url(#clipPath2)"/>
    </g>
    <g fill="white" text-rendering="geometricPrecision" shape-rendering="geometricPrecision" transform="matrix(1,0,0,1,-120,-114)" stroke="white">
      <rect x="750" width="30" height="30" y="435" clip-path="url(#clipPath2)" stroke="none"/>
    </g>
    <g text-rendering="geometricPrecision" stroke-miterlimit="1.45" shape-rendering="geometricPrecision" font-family="sans-serif" transform="matrix(1,0,0,1,-120,-114)" stroke-linecap="butt">
      <text x="761.6631" xml:space="preserve" y="454.7139" clip-path="url(#clipPath2)" stroke="none">1</text>
      <rect fill="none" x="750" width="30" height="30" y="435" clip-path="url(#clipPath2)"/>
    </g>
    <g fill="white" text-rendering="geometricPrecision" shape-rendering="geometricPrecision" transform="matrix(1,0,0,1,-120,-114)" stroke="white">
      <rect x="720" width="30" height="30" y="435" clip-path="url(#clipPath2)" stroke="none"/>
    </g>
    <g text-rendering="geometricPrecision" stroke-miterlimit="1.45" shape-rendering="geometricPrecision" font-family="sans-serif" transform="matrix(1,0,0,1,-120,-114)" stroke-linecap="butt">
      <text x="731.6631" xml:space="preserve" y="454.7139" clip-path="url(#clipPath2)" stroke="none">2</text>
      <rect fill="none" x="720" width="30" height="30" y="435" clip-path="url(#clipPath2)"/>
    </g>
    <g fill="white" text-rendering="geometricPrecision" shape-rendering="geometricPrecision" transform="matrix(1,0,0,1,-120,-114)" stroke="white">
      <rect x="690" width="30" height="30" y="435" clip-path="url(#clipPath2)" stroke="none"/>
    </g>
    <g text-rendering="geometricPrecision" stroke-miterlimit="1.45" shape-rendering="geometricPrecision" font-family="sans-serif" transform="matrix(1,0,0,1,-120,-114)" stroke-linecap="butt">
      <text x="701.6631" xml:space="preserve" y="454.7139" clip-path="url(#clipPath2)" stroke="none">3</text>
      <rect fill="none" x="690" width="30" height="30" y="435" clip-path="url(#clipPath2)"/>
    </g>
    <g fill="white" text-rendering="geometricPrecision" shape-rendering="geometricPrecision" transform="matrix(1,0,0,1,-120,-114)" stroke="white">
      <rect x="660" width="30" height="30" y="435" clip-path="url(#clipPath2)" stroke="none"/>
    </g>
    <g text-rendering="geometricPrecision" stroke-miterlimit="1.45" shape-rendering="geometricPrecision" font-family="sans-serif" transform="matrix(1,0,0,1,-120,-114)" stroke-linecap="butt">
      <text x="671.6631" xml:space="preserve" y="454.7139" clip-path="url(#clipPath2)" stroke="none">4</text>
      <rect fill="none" x="660" width="30" height="30" y="435" clip-path="url(#clipPath2)"/>
    </g>
    <g fill="white" text-rendering="geometricPrecision" shape-rendering="geometricPrecision" transform="matrix(1,0,0,1,-120,-114)" stroke="white">
      <rect x="630" width="30" height="30" y="435" clip-path="url(#clipPath2)" stroke="none"/>
    </g>
    <g text-rendering="geometricPrecision" stroke-miterlimit="1.45" shape-rendering="geometricPrecision" font-family="sans-serif" transform="matrix(1,0,0,1,-120,-114)" stroke-linecap="butt">
      <text x="641.6631" xml:space="preserve" y="454.7139" clip-path="url(#clipPath2)" stroke="none">5</text>
      <rect fill="none" x="630" width="30" height="30" y="435" clip-path="url(#clipPath2)"/>
    </g>
    <g fill="white" text-rendering="geometricPrecision" shape-rendering="geometricPrecision" transform="matrix(1,0,0,1,-120,-114)" stroke="white">
      <rect x="600" width="30" height="30" y="435" clip-path="url(#clipPath2)" stroke="none"/>
    </g>
    <g text-rendering="geometricPrecision" stroke-miterlimit="1.45" shape-rendering="geometricPrecision" font-family="sans-serif" transform="matrix(1,0,0,1,-120,-114)" stroke-linecap="butt">
      <text x="611.6631" xml:space="preserve" y="454.7139" clip-path="url(#clipPath2)" stroke="none">6</text>
      <rect fill="none" x="600" width="30" height="30" y="435" clip-path="url(#clipPath2)"/>
    </g>
    <g fill="white" text-rendering="geometricPrecision" shape-rendering="geometricPrecision" transform="matrix(1,0,0,1,-120,-114)" stroke="white">
      <rect x="570" width="30" height="30" y="435" clip-path="url(#clipPath2)" stroke="none"/>
    </g>
    <g text-rendering="geometricPrecision" stroke-miterlimit="1.45" shape-rendering="geometricPrecision" font-family="sans-serif" transform="matrix(1,0,0,1,-120,-114)" stroke-linecap="butt">
      <text x="581.6631" xml:space="preserve" y="454.7139" clip-path="url(#clipPath2)" stroke="none">7</text>
      <rect fill="none" x="570" width="30" height="30" y="435" clip-path="url(#clipPath2)"/>
    </g>
    <g fill="silver" text-rendering="geometricPrecision" shape-rendering="geometricPrecision" transform="matrix(1,0,0,1,-120,-114)" stroke="silver">
      <path d="M570 465 L810 465 L750 495 L630 495 Z" fill-rule="evenodd" clip-path="url(#clipPath2)" stroke="none"/>
    </g>
    <g text-rendering="geometricPrecision" stroke-miterlimit="1.45" shape-rendering="geometricPrecision" font-family="sans-serif" transform="matrix(1,0,0,1,-120,-114)" stroke-linecap="butt">
      <text x="678" xml:space="preserve" y="484.7139" clip-path="url(#clipPath2)" stroke="none">TAC</text>
      <path fill="none" d="M570 465 L810 465 L750 495 L630 495 Z" clip-path="url(#clipPath2)" fill-rule="evenodd"/>
    </g>
    <g fill="lime" text-rendering="geometricPrecision" shape-rendering="geometricPrecision" transform="matrix(1,0,0,1,-120,-114)" stroke="lime">
      <circle r="25" clip-path="url(#clipPath2)" cx="585" cy="525" stroke="none"/>
    </g>
    <g text-rendering="geometricPrecision" stroke-miterlimit="1.45" shape-rendering="geometricPrecision" font-family="sans-serif" transform="matrix(1,0,0,1,-120,-114)" stroke-linecap="butt">
      <text x="569.6689" xml:space="preserve" y="522.3633" clip-path="url(#clipPath2)" stroke="none">Timer</text>
      <text x="574.667" xml:space="preserve" y="537.0645" clip-path="url(#clipPath2)" stroke="none">INC</text>
      <circle fill="none" r="25" clip-path="url(#clipPath2)" cx="585" cy="525"/>
    </g>
    <g fill="aqua" text-rendering="geometricPrecision" shape-rendering="geometricPrecision" transform="matrix(1,0,0,1,-120,-114)" stroke="aqua">
      <path d="M345 270 L405 270 L390 300 L360 300 Z" fill-rule="evenodd" clip-path="url(#clipPath2)" stroke="none"/>
    </g>
    <g text-rendering="geometricPrecision" stroke-miterlimit="1.45" shape-rendering="geometricPrecision" font-family="sans-serif" transform="matrix(1,0,0,1,-120,-114)" stroke-linecap="butt">
      <text x="361.6582" xml:space="preserve" y="289.7139" clip-path="url(#clipPath2)" stroke="none">0    1</text>
      <path fill="none" d="M345 270 L405 270 L390 300 L360 300 Z" clip-path="url(#clipPath2)" fill-rule="evenodd"/>
    </g>
    <g fill="aqua" text-rendering="geometricPrecision" shape-rendering="geometricPrecision" transform="matrix(1,0,0,1,-120,-114)" stroke="aqua">
      <path d="M435 270 L495 270 L480 300 L450 300 Z" fill-rule="evenodd" clip-path="url(#clipPath2)" stroke="none"/>
    </g>
    <g text-rendering="geometricPrecision" stroke-miterlimit="1.45" shape-rendering="geometricPrecision" font-family="sans-serif" transform="matrix(1,0,0,1,-120,-114)" stroke-linecap="butt">
      <text x="451.6582" xml:space="preserve" y="289.7139" clip-path="url(#clipPath2)" stroke="none">1    0</text>
      <path fill="none" d="M435 270 L495 270 L480 300 L450 300 Z" clip-path="url(#clipPath2)" fill-rule="evenodd"/>
    </g>
    <g fill="aqua" text-rendering="geometricPrecision" shape-rendering="geometricPrecision" transform="matrix(1,0,0,1,-120,-114)" stroke="aqua">
      <path d="M390 345 L450 345 L435 375 L405 375 Z" fill-rule="evenodd" clip-path="url(#clipPath2)" stroke="none"/>
    </g>
    <g text-rendering="geometricPrecision" stroke-miterlimit="1.45" shape-rendering="geometricPrecision" font-family="sans-serif" transform="matrix(1,0,0,1,-120,-114)" stroke-linecap="butt">
      <text x="406.6582" xml:space="preserve" y="364.7139" clip-path="url(#clipPath2)" stroke="none">0    1</text>
      <path fill="none" d="M390 345 L450 345 L435 375 L405 375 Z" clip-path="url(#clipPath2)" fill-rule="evenodd"/>
    </g>
    <g fill="aqua" text-rendering="geometricPrecision" shape-rendering="geometricPrecision" transform="matrix(1,0,0,1,-120,-114)" stroke="aqua">
      <rect x="495" width="30" height="30" y="510" clip-path="url(#clipPath2)" stroke="none"/>
    </g>
    <g text-rendering="geometricPrecision" stroke-miterlimit="1.45" shape-rendering="geometricPrecision" font-family="sans-serif" transform="matrix(1,0,0,1,-120,-114)" stroke-linecap="butt">
      <text x="497.332" xml:space="preserve" y="529.7139" clip-path="url(#clipPath2)" stroke="none">AND</text>
      <rect fill="none" x="495" width="30" height="30" y="510" clip-path="url(#clipPath2)"/>
    </g>
    <g fill="rgb(204,255,255)" text-rendering="geometricPrecision" shape-rendering="geometricPrecision" transform="matrix(1,0,0,1,-120,-114)" stroke="rgb(204,255,255)">
      <rect x="390" width="60" height="60" y="495" clip-path="url(#clipPath2)" stroke="none"/>
    </g>
    <g text-rendering="geometricPrecision" stroke-miterlimit="1.45" shape-rendering="geometricPrecision" font-family="sans-serif" transform="matrix(1,0,0,1,-120,-114)" stroke-linecap="butt">
      <text x="402.3252" xml:space="preserve" y="515.0127" clip-path="url(#clipPath2)" stroke="none">Falling</text>
      <text x="406.6523" xml:space="preserve" y="529.7139" clip-path="url(#clipPath2)" stroke="none">edge</text>
      <text x="398.3203" xml:space="preserve" y="544.415" clip-path="url(#clipPath2)" stroke="none">detector</text>
      <rect x="390" y="495" clip-path="url(#clipPath2)" fill="none" width="60" stroke-dasharray="12,4" height="60" stroke-width="2"/>
      <path fill="none" d="M695 210 L623 210" clip-path="url(#clipPath2)"/>
      <path d="M615 210 L627 215 L624 210 L627 205 Z" clip-path="url(#clipPath2)" stroke="none"/>
      <text x="631.9873" xml:space="preserve" y="204.3633" clip-path="url(#clipPath2)" stroke="none">Increase</text>
      <path fill="none" d="M689.9707 150 L600 150 L600 187" clip-path="url(#clipPath2)"/>
      <path d="M600 195 L605 183 L600 186 L595 183 Z" clip-path="url(#clipPath2)" stroke="none"/>
      <text x="624.7637" xml:space="preserve" y="143.3633" clip-path="url(#clipPath2)" stroke="none">Reset</text>
      <path fill="none" d="M330 225 L330 240 L360 255.352 L360 261.9733" clip-path="url(#clipPath2)"/>
      <path d="M360 269.9733 L365 257.9733 L360 260.9733 L355 257.9733 Z" clip-path="url(#clipPath2)" stroke="none"/>
      <path fill="none" d="M510 225 L510 240 L390 255 L390 261.9707" clip-path="url(#clipPath2)"/>
      <path d="M390 269.9707 L395 257.9707 L390 260.9707 L385 257.9707 Z" clip-path="url(#clipPath2)" stroke="none"/>
      <path fill="none" stroke-dasharray="6,2" d="M795 435 L795 330 L465 330 L420 285 L405.4561 285" clip-path="url(#clipPath2)"/>
      <path stroke-dasharray="6,2" d="M397.4561 285 L409.4561 290 L406.4561 285 L409.4561 280 Z" clip-path="url(#clipPath2)" stroke="none"/>
      <text x="600.6592" xml:space="preserve" y="323.3633" clip-path="url(#clipPath2)" stroke="none">TAC.Freq0</text>
      <path fill="none" d="M390 225 L390 240 L450 255 L450 261.9707" clip-path="url(#clipPath2)"/>
      <path d="M450 269.9707 L455 257.9707 L450 260.9707 L445 257.9707 Z" clip-path="url(#clipPath2)" stroke="none"/>
      <path fill="none" d="M450 225 L450 240 L480 254.328 L480 261.9935" clip-path="url(#clipPath2)"/>
      <path d="M480 269.9935 L485 257.9935 L480 260.9935 L475 257.9935 Z" clip-path="url(#clipPath2)" stroke="none"/>
      <path fill="none" stroke-dasharray="6,2" d="M795 435 L795 287.2 L795 285 L495.5183 285" clip-path="url(#clipPath2)"/>
      <path stroke-dasharray="6,2" d="M487.5183 285 L499.5183 290 L496.5183 285 L499.5183 280 Z" clip-path="url(#clipPath2)" stroke="none"/>
      <path fill="none" d="M375 299.9707 L375 315 L405 330 L405 337.012" clip-path="url(#clipPath2)"/>
      <path d="M405 345.012 L410 333.012 L405 336.012 L400 333.012 Z" clip-path="url(#clipPath2)" stroke="none"/>
      <path fill="none" d="M465 299.9707 L465 315 L435 330 L435 336.9767" clip-path="url(#clipPath2)"/>
      <path d="M435 344.9767 L440 332.9767 L435 335.9767 L430 332.9767 Z" clip-path="url(#clipPath2)" stroke="none"/>
      <path fill="none" stroke-dasharray="6,2" d="M765 435 L765 360 L450.5311 360" clip-path="url(#clipPath2)"/>
      <path stroke-dasharray="6,2" d="M442.5311 360 L454.5311 365 L451.5311 360 L454.5311 355 Z" clip-path="url(#clipPath2)" stroke="none"/>
      <text x="582.7217" xml:space="preserve" y="353.3633" clip-path="url(#clipPath2)" stroke="none">TAC.Freq1</text>
      <path fill="none" d="M735 435 L735 390 L510 390 L510 502" clip-path="url(#clipPath2)"/>
      <path d="M510 510 L515 498 L510 501 L505 498 Z" clip-path="url(#clipPath2)" stroke="none"/>
      <text x="590.1504" xml:space="preserve" y="383.3633" clip-path="url(#clipPath2)" stroke="none">TAC.Enable</text>
      <path fill="none" d="M525 525 L552 525" clip-path="url(#clipPath2)"/>
      <path d="M560 525 L548 520 L551 525 L548 530 Z" clip-path="url(#clipPath2)" stroke="none"/>
      <path fill="none" d="M420 375.0256 L420 487" clip-path="url(#clipPath2)"/>
      <path d="M420 495 L425 483 L420 486 L415 483 Z" clip-path="url(#clipPath2)" stroke="none"/>
      <path fill="none" d="M450 525 L487 525" clip-path="url(#clipPath2)"/>
      <path d="M495 525 L483 520 L486 525 L483 530 Z" clip-path="url(#clipPath2)" stroke="none"/>
    </g>
  </g>
</svg>
