<svg viewBox="0 -21 335 101" id="rgb555">
	<defs>
		<style type="text/css"><![CDATA[
			#rgb555 rect {
				fill: none;
				stroke: var(--fg, #000);
			}
			#rgb555 text {
				fill: var(--fg, #000);
				font-size: 7.5px;
				dominant-baseline: middle;
				text-anchor: middle;
			}
			#rgb555 .left  { text-anchor: start; }
			#rgb555 .right { text-anchor: end; }
			#rgb555 .sm { font-size: 7px; }
			#rgb555 path { stroke-width: .5px; }
			#rgb555 polyline, line {
				fill: none;
				stroke: var(--fg, #000);
				stroke-width: .5px;
			}
			#rgb555 .thick { stroke-width: 1px; }
			#rgb555 .dashed {
				stroke-dasharray: 1;
			}
		]]></style>
		<linearGradient id="fg-black" gradientTransform="rotate(90)">
			<stop offset="0%"   stop-color="black"/>
			<stop offset="100%" stop-color="var(--fg)"/>
		</linearGradient>
	</defs>
	<image x="240" y="30" href="imgs/palette_viewer_screenshot.png" width="94" height="45"/>
	<rect x="264" y="-20" width="8" height="8" style="fill:#8439FF"/>
	<polyline points="285,55 276,55 276,-16 270,-16" style="stroke:#8439FF"/>
	<text x="261" y="-16" class="right"><tspan class="sm">8-bit RGB color:</tspan> #8439FF</text>
	<polyline points="259,-12 254,-12 256.5,-12 256.5,-3 211,-3 211,1 208,1 214,1"/>
	<polyline points="251,-12 245,-12 248,-12 248,-6 136,-6 136,1 133,1 139,1"/>
	<polyline points="242,-12 236,-12 239,-12 239,-9 50,-9 50,1 47,1 53,1"/>
	<text x="41"  y="6.5" class="sm">8-bit red: $84 (132)</text>
	<rect x="1"   y="11" width="80" height="10" style="fill:#f005"/><text x="6"   y="17" class="sm">1</text>
	<line x1="11"  y1="11" x2="11"  y2="21" opacity="0.7"/>         <text x="16"  y="17" class="sm">0</text>
	<line x1="21"  y1="11" x2="21"  y2="21" opacity="0.7"/>         <text x="26"  y="17" class="sm">0</text>
	<line x1="31"  y1="11" x2="31"  y2="21" opacity="0.7"/>         <text x="36"  y="17" class="sm">0</text>
	<line x1="41"  y1="11" x2="41"  y2="21" opacity="0.7"/>         <text x="46"  y="17" class="sm">0</text>
	<line x1="51"  y1="11" x2="51"  y2="21" opacity="0.7"/>         <text x="56"  y="17" class="sm">1</text>
	<line x1="61"  y1="11" x2="61"  y2="21" opacity="0.7"/>         <text x="66"  y="17" class="sm">0</text>
	<line x1="71"  y1="11" x2="71"  y2="21" opacity="0.7"/>         <text x="76"  y="17" class="sm">0</text>
	<text x="121" y="6.5" class="sm">8-bit green: $39 (57)</text>
	<rect x="81"  y="11" width="80" height="10" style="fill:#0f04"/><text x="86"  y="17" class="sm">0</text>
	<line x1="91"  y1="11" x2="91"  y2="21" opacity="0.7"/>         <text x="96"  y="17" class="sm">0</text>
	<line x1="101" y1="11" x2="101" y2="21" opacity="0.7"/>         <text x="106" y="17" class="sm">1</text>
	<line x1="111" y1="11" x2="111" y2="21" opacity="0.7"/>         <text x="116" y="17" class="sm">1</text>
	<line x1="121" y1="11" x2="121" y2="21" opacity="0.7"/>         <text x="126" y="17" class="sm">1</text>
	<line x1="131" y1="11" x2="131" y2="21" opacity="0.7"/>         <text x="136" y="17" class="sm">0</text>
	<line x1="141" y1="11" x2="141" y2="21" opacity="0.7"/>         <text x="146" y="17" class="sm">0</text>
	<line x1="151" y1="11" x2="151" y2="21" opacity="0.7"/>         <text x="156" y="17" class="sm">1</text>
	<text x="201" y="6.5" class="sm">8-bit blue: $FF (255)</text>
	<rect x="161" y="11" width="80" height="10" style="fill:#00f5"/><text x="166" y="17" class="sm">1</text>
	<line x1="171" y1="11" x2="171" y2="21" opacity="0.7"/>         <text x="176" y="17" class="sm">1</text>
	<line x1="181" y1="11" x2="181" y2="21" opacity="0.7"/>         <text x="186" y="17" class="sm">1</text>
	<line x1="191" y1="11" x2="191" y2="21" opacity="0.7"/>         <text x="196" y="17" class="sm">1</text>
	<line x1="201" y1="11" x2="201" y2="21" opacity="0.7"/>         <text x="206" y="17" class="sm">1</text>
	<line x1="211" y1="11" x2="211" y2="21" opacity="0.7"/>         <text x="216" y="17" class="sm">1</text>
	<line x1="221" y1="11" x2="221" y2="21" opacity="0.7"/>         <text x="226" y="17" class="sm">1</text>
	<line x1="231" y1="11" x2="231" y2="21" opacity="0.7"/>         <text x="236" y="17" class="sm">1</text>
	<path d="M81,31  c0,15 9,15    9,30    h50 c0,-15 -9,-15   -9,-30   Z" fill="var(--bg)" stroke="var(--fg)"/>
	<path d="M81,31  c0,15 9,15    9,30    h50 c0,-15 -9,-15   -9,-30   Z" fill="#0f04" stroke="#0f04"/>
	<rect x="81"  y="21" width="50" height="10"/>
	<text x="106" y="26.5">5-bit green: 7</text>
	<path d="M161,31 c0,15 -121,15 -121,30 h50 c0,-15 121,-15  121,-30  Z" fill="var(--bg)" stroke="var(--fg)"/>
	<path d="M161,31 c0,15 -121,15 -121,30 h50 c0,-15 121,-15  121,-30  Z" fill="#00f5" stroke="#00f5"/>
	<rect x="161" y="21" width="50" height="10"/>
	<text x="186" y="26.5">5-bit blue: 31</text>
	<path d="M1,31   c0,15 139,15  139,30  h50 c0,-15 -139,-15 -139,-30 Z" fill="var(--bg)" stroke="var(--fg)"/>
	<path d="M1,31   c0,15 139,15  139,30  h50 c0,-15 -139,-15 -139,-30 Z" fill="#f005" stroke="#f005"/>
	<rect x="1"   y="21" width="50" height="10"/>
	<text x="26"  y="26.5">5-bit red: 16</text>
	<rect x="40"  y="61" width="50" height="10" style="stroke:none;fill:#00f5"/>
	<rect x="90"  y="61" width="50" height="10" style="stroke:none;fill:#0f04"/>
	<rect x="140" y="61" width="50" height="10" style="stroke:none;fill:#f005"/>
	<rect x="30"   y="61" width="80" height="10"/><line x1="30" y1="71" x2="40" y2="61"/>
	<line x1="40"  y1="61" x2="40"  y2="71"/>     <text x="45"  y="67">1</text>
	<line x1="50"  y1="61" x2="50"  y2="71"/>     <text x="55"  y="67">1</text>
	<line x1="60"  y1="61" x2="60"  y2="71"/>     <text x="65"  y="67">1</text>
	<line x1="70"  y1="61" x2="70"  y2="71"/>     <text x="75"  y="67">1</text>
	<line x1="80"  y1="61" x2="80"  y2="71"/>     <text x="85"  y="67">1</text>
	<line x1="90"  y1="61" x2="90"  y2="71"/>     <text x="95"  y="67">0</text>
	<line x1="100" y1="61" x2="100" y2="71"/>     <text x="105" y="67">0</text>
	<polyline points="31,72 31,76 53,76"/><polyline points="87,76 109,76 109,72"/>
	<text x="70"  y="76" class="sm">High byte</text>
	<rect x="110"  y="61" width="80" height="10"/><text x="115" y="67">1</text>
	<line x1="120" y1="61" x2="120" y2="71"/>     <text x="125" y="67">1</text>
	<line x1="130" y1="61" x2="130" y2="71"/>     <text x="135" y="67">1</text>
	<line x1="140" y1="61" x2="140" y2="71"/>     <text x="145" y="67">1</text>
	<line x1="150" y1="61" x2="150" y2="71"/>     <text x="155" y="67">0</text>
	<line x1="160" y1="61" x2="160" y2="71"/>     <text x="165" y="67">0</text>
	<line x1="170" y1="61" x2="170" y2="71"/>     <text x="175" y="67">0</text>
	<line x1="180" y1="61" x2="180" y2="71"/>     <text x="185" y="67">0</text>
	<polyline points="111,72 111,76 134,76"/><polyline points="166,76 189,76 189,72"/>
	<text x="150" y="76" class="sm">Low byte</text>
	<text x="193" y="67" class="left">= $7CF0</text>
	<text x="212" y="49" class="sm">5-bit RGB</text>
	<text x="212" y="57" class="sm">color:</text>
	<polyline points="290,68 280,68 285,68 285,75" style="stroke:url('#fg-black')"/>
	<polyline points="285,75 285,78 214,78 214,71 223,71 205,71"/>
</svg>
