<?xml version="1.0" encoding="UTF-8"?><svg xmlns="http://www.w3.org/2000/svg" xmlns:xlink="http://www.w3.org/1999/xlink" fill-opacity="1" color-rendering="auto" color-interpolation="auto" text-rendering="auto" stroke="black" stroke-linecap="square" width="600" stroke-miterlimit="10" shape-rendering="auto" stroke-opacity="1" fill="black" stroke-dasharray="none" font-weight="normal" stroke-width="1" height="345" font-family="'Dialog'" font-style="normal" stroke-linejoin="miter" font-size="12px" stroke-dashoffset="0" image-rendering="auto">
  <!--Generated by ySVG 2.5-->
  <defs id="genericDefs"/>
  <g>
    <defs id="defs1">
      <clipPath clipPathUnits="userSpaceOnUse" id="clipPath1">
        <path d="M0 0 L600 0 L600 345 L0 345 L0 0 Z"/>
      </clipPath>
      <clipPath clipPathUnits="userSpaceOnUse" id="clipPath2">
        <path d="M480 -60 L1080 -60 L1080 285 L480 285 L480 -60 Z"/>
      </clipPath>
    </defs>
    <g fill="white" text-rendering="geometricPrecision" shape-rendering="geometricPrecision" transform="translate(-480,60)" stroke="white">
      <rect x="480" width="600" height="345" y="-60" clip-path="url(#clipPath2)" stroke="none"/>
    </g>
    <g fill="white" text-rendering="geometricPrecision" shape-rendering="geometricPrecision" transform="matrix(1,0,0,1,-480,60)" stroke="white">
      <rect x="705" width="30" height="30" y="-15" clip-path="url(#clipPath2)" stroke="none"/>
    </g>
    <g text-rendering="geometricPrecision" stroke-miterlimit="1.45" shape-rendering="geometricPrecision" font-family="sans-serif" transform="matrix(1,0,0,1,-480,60)" stroke-linecap="butt">
      <text x="716.6631" xml:space="preserve" y="4.7139" clip-path="url(#clipPath2)" stroke="none">0</text>
      <rect fill="none" x="705" width="30" height="30" y="-15" clip-path="url(#clipPath2)"/>
    </g>
    <g fill="white" text-rendering="geometricPrecision" shape-rendering="geometricPrecision" transform="matrix(1,0,0,1,-480,60)" stroke="white">
      <rect x="675" width="30" height="30" y="-15" clip-path="url(#clipPath2)" stroke="none"/>
    </g>
    <g text-rendering="geometricPrecision" stroke-miterlimit="1.45" shape-rendering="geometricPrecision" font-family="sans-serif" transform="matrix(1,0,0,1,-480,60)" stroke-linecap="butt">
      <text x="686.6631" xml:space="preserve" y="4.7139" clip-path="url(#clipPath2)" stroke="none">1</text>
      <rect fill="none" x="675" width="30" height="30" y="-15" clip-path="url(#clipPath2)"/>
    </g>
    <g fill="white" text-rendering="geometricPrecision" shape-rendering="geometricPrecision" transform="matrix(1,0,0,1,-480,60)" stroke="white">
      <rect x="645" width="30" height="30" y="-15" clip-path="url(#clipPath2)" stroke="none"/>
    </g>
    <g text-rendering="geometricPrecision" stroke-miterlimit="1.45" shape-rendering="geometricPrecision" font-family="sans-serif" transform="matrix(1,0,0,1,-480,60)" stroke-linecap="butt">
      <text x="656.6631" xml:space="preserve" y="4.7139" clip-path="url(#clipPath2)" stroke="none">2</text>
      <rect fill="none" x="645" width="30" height="30" y="-15" clip-path="url(#clipPath2)"/>
    </g>
    <g fill="white" text-rendering="geometricPrecision" shape-rendering="geometricPrecision" transform="matrix(1,0,0,1,-480,60)" stroke="white">
      <rect x="615" width="30" height="30" y="-15" clip-path="url(#clipPath2)" stroke="none"/>
    </g>
    <g text-rendering="geometricPrecision" stroke-miterlimit="1.45" shape-rendering="geometricPrecision" font-family="sans-serif" transform="matrix(1,0,0,1,-480,60)" stroke-linecap="butt">
      <text x="626.6631" xml:space="preserve" y="4.7139" clip-path="url(#clipPath2)" stroke="none">3</text>
      <rect fill="none" x="615" width="30" height="30" y="-15" clip-path="url(#clipPath2)"/>
    </g>
    <g fill="white" text-rendering="geometricPrecision" shape-rendering="geometricPrecision" transform="matrix(1,0,0,1,-480,60)" stroke="white">
      <rect x="585" width="30" height="30" y="-15" clip-path="url(#clipPath2)" stroke="none"/>
    </g>
    <g text-rendering="geometricPrecision" stroke-miterlimit="1.45" shape-rendering="geometricPrecision" font-family="sans-serif" transform="matrix(1,0,0,1,-480,60)" stroke-linecap="butt">
      <text x="596.6631" xml:space="preserve" y="4.7139" clip-path="url(#clipPath2)" stroke="none">4</text>
      <rect fill="none" x="585" width="30" height="30" y="-15" clip-path="url(#clipPath2)"/>
    </g>
    <g fill="white" text-rendering="geometricPrecision" shape-rendering="geometricPrecision" transform="matrix(1,0,0,1,-480,60)" stroke="white">
      <rect x="555" width="30" height="30" y="-15" clip-path="url(#clipPath2)" stroke="none"/>
    </g>
    <g text-rendering="geometricPrecision" stroke-miterlimit="1.45" shape-rendering="geometricPrecision" font-family="sans-serif" transform="matrix(1,0,0,1,-480,60)" stroke-linecap="butt">
      <text x="566.6631" xml:space="preserve" y="4.7139" clip-path="url(#clipPath2)" stroke="none">5</text>
      <rect fill="none" x="555" width="30" height="30" y="-15" clip-path="url(#clipPath2)"/>
    </g>
    <g fill="white" text-rendering="geometricPrecision" shape-rendering="geometricPrecision" transform="matrix(1,0,0,1,-480,60)" stroke="white">
      <rect x="525" width="30" height="30" y="-15" clip-path="url(#clipPath2)" stroke="none"/>
    </g>
    <g text-rendering="geometricPrecision" stroke-miterlimit="1.45" shape-rendering="geometricPrecision" font-family="sans-serif" transform="matrix(1,0,0,1,-480,60)" stroke-linecap="butt">
      <text x="536.6631" xml:space="preserve" y="4.7139" clip-path="url(#clipPath2)" stroke="none">6</text>
      <rect fill="none" x="525" width="30" height="30" y="-15" clip-path="url(#clipPath2)"/>
    </g>
    <g fill="white" text-rendering="geometricPrecision" shape-rendering="geometricPrecision" transform="matrix(1,0,0,1,-480,60)" stroke="white">
      <rect x="495" width="30" height="30" y="-15" clip-path="url(#clipPath2)" stroke="none"/>
    </g>
    <g text-rendering="geometricPrecision" stroke-miterlimit="1.45" shape-rendering="geometricPrecision" font-family="sans-serif" transform="matrix(1,0,0,1,-480,60)" stroke-linecap="butt">
      <text x="506.6631" xml:space="preserve" y="4.7139" clip-path="url(#clipPath2)" stroke="none">7</text>
      <rect fill="none" x="495" width="30" height="30" y="-15" clip-path="url(#clipPath2)"/>
    </g>
    <g fill="silver" text-rendering="geometricPrecision" shape-rendering="geometricPrecision" transform="matrix(1,0,0,1,-480,60)" stroke="silver">
      <path d="M495 -15 L555 -45 L675 -45 L735 -15 Z" fill-rule="evenodd" clip-path="url(#clipPath2)" stroke="none"/>
    </g>
    <g text-rendering="geometricPrecision" stroke-miterlimit="1.45" shape-rendering="geometricPrecision" font-family="sans-serif" transform="matrix(1,0,0,1,-480,60)" stroke-linecap="butt">
      <text x="607.6611" xml:space="preserve" y="-25.2861" clip-path="url(#clipPath2)" stroke="none">P1</text>
      <path fill="none" d="M495 -15 L555 -45 L675 -45 L735 -15 Z" clip-path="url(#clipPath2)" fill-rule="evenodd"/>
    </g>
    <g fill="rgb(255,204,153)" text-rendering="geometricPrecision" shape-rendering="geometricPrecision" transform="matrix(1,0,0,1,-480,60)" stroke="rgb(255,204,153)">
      <rect x="702.5" width="15" height="50" y="197.5" clip-path="url(#clipPath2)" stroke="none"/>
    </g>
    <g text-rendering="geometricPrecision" stroke-miterlimit="1.45" shape-rendering="geometricPrecision" font-family="sans-serif" transform="matrix(1,0,0,1,-480,60)" stroke-linecap="butt">
      <text x="705.667" xml:space="preserve" y="227.2139" clip-path="url(#clipPath2)" stroke="none">R</text>
      <rect fill="none" x="702.5" width="15" height="50" y="197.5" clip-path="url(#clipPath2)"/>
    </g>
    <g fill="white" text-rendering="geometricPrecision" shape-rendering="geometricPrecision" transform="matrix(1,0,0,1,-480,60)" stroke="white">
      <rect x="1012.5" width="30" height="30" y="135" clip-path="url(#clipPath2)" stroke="none"/>
    </g>
    <g text-rendering="geometricPrecision" stroke-miterlimit="1.45" shape-rendering="geometricPrecision" font-family="sans-serif" transform="matrix(1,0,0,1,-480,60)" stroke-linecap="butt">
      <text x="1024.1631" xml:space="preserve" y="154.7139" clip-path="url(#clipPath2)" stroke="none">0</text>
      <rect fill="none" x="1012.5" width="30" height="30" y="135" clip-path="url(#clipPath2)"/>
    </g>
    <g fill="white" text-rendering="geometricPrecision" shape-rendering="geometricPrecision" transform="matrix(1,0,0,1,-480,60)" stroke="white">
      <rect x="982.5" width="30" height="30" y="135" clip-path="url(#clipPath2)" stroke="none"/>
    </g>
    <g text-rendering="geometricPrecision" stroke-miterlimit="1.45" shape-rendering="geometricPrecision" font-family="sans-serif" transform="matrix(1,0,0,1,-480,60)" stroke-linecap="butt">
      <text x="994.1631" xml:space="preserve" y="154.7139" clip-path="url(#clipPath2)" stroke="none">1</text>
      <rect fill="none" x="982.5" width="30" height="30" y="135" clip-path="url(#clipPath2)"/>
    </g>
    <g fill="white" text-rendering="geometricPrecision" shape-rendering="geometricPrecision" transform="matrix(1,0,0,1,-480,60)" stroke="white">
      <rect x="952.5" width="30" height="30" y="135" clip-path="url(#clipPath2)" stroke="none"/>
    </g>
    <g text-rendering="geometricPrecision" stroke-miterlimit="1.45" shape-rendering="geometricPrecision" font-family="sans-serif" transform="matrix(1,0,0,1,-480,60)" stroke-linecap="butt">
      <text x="964.1631" xml:space="preserve" y="154.7139" clip-path="url(#clipPath2)" stroke="none">2</text>
      <rect fill="none" x="952.5" width="30" height="30" y="135" clip-path="url(#clipPath2)"/>
    </g>
    <g fill="white" text-rendering="geometricPrecision" shape-rendering="geometricPrecision" transform="matrix(1,0,0,1,-480,60)" stroke="white">
      <rect x="922.5" width="30" height="30" y="135" clip-path="url(#clipPath2)" stroke="none"/>
    </g>
    <g text-rendering="geometricPrecision" stroke-miterlimit="1.45" shape-rendering="geometricPrecision" font-family="sans-serif" transform="matrix(1,0,0,1,-480,60)" stroke-linecap="butt">
      <text x="934.1631" xml:space="preserve" y="154.7139" clip-path="url(#clipPath2)" stroke="none">3</text>
      <rect fill="none" x="922.5" width="30" height="30" y="135" clip-path="url(#clipPath2)"/>
    </g>
    <g fill="white" text-rendering="geometricPrecision" shape-rendering="geometricPrecision" transform="matrix(1,0,0,1,-480,60)" stroke="white">
      <rect x="892.5" width="30" height="30" y="135" clip-path="url(#clipPath2)" stroke="none"/>
    </g>
    <g text-rendering="geometricPrecision" stroke-miterlimit="1.45" shape-rendering="geometricPrecision" font-family="sans-serif" transform="matrix(1,0,0,1,-480,60)" stroke-linecap="butt">
      <text x="904.1631" xml:space="preserve" y="154.7139" clip-path="url(#clipPath2)" stroke="none">4</text>
      <rect fill="none" x="892.5" width="30" height="30" y="135" clip-path="url(#clipPath2)"/>
    </g>
    <g fill="white" text-rendering="geometricPrecision" shape-rendering="geometricPrecision" transform="matrix(1,0,0,1,-480,60)" stroke="white">
      <rect x="862.5" width="30" height="30" y="135" clip-path="url(#clipPath2)" stroke="none"/>
    </g>
    <g text-rendering="geometricPrecision" stroke-miterlimit="1.45" shape-rendering="geometricPrecision" font-family="sans-serif" transform="matrix(1,0,0,1,-480,60)" stroke-linecap="butt">
      <text x="874.1631" xml:space="preserve" y="154.7139" clip-path="url(#clipPath2)" stroke="none">5</text>
      <rect fill="none" x="862.5" width="30" height="30" y="135" clip-path="url(#clipPath2)"/>
    </g>
    <g fill="white" text-rendering="geometricPrecision" shape-rendering="geometricPrecision" transform="matrix(1,0,0,1,-480,60)" stroke="white">
      <rect x="832.5" width="30" height="30" y="135" clip-path="url(#clipPath2)" stroke="none"/>
    </g>
    <g text-rendering="geometricPrecision" stroke-miterlimit="1.45" shape-rendering="geometricPrecision" font-family="sans-serif" transform="matrix(1,0,0,1,-480,60)" stroke-linecap="butt">
      <text x="844.1631" xml:space="preserve" y="154.7139" clip-path="url(#clipPath2)" stroke="none">6</text>
      <rect fill="none" x="832.5" width="30" height="30" y="135" clip-path="url(#clipPath2)"/>
    </g>
    <g fill="white" text-rendering="geometricPrecision" shape-rendering="geometricPrecision" transform="matrix(1,0,0,1,-480,60)" stroke="white">
      <rect x="802.5" width="30" height="30" y="135" clip-path="url(#clipPath2)" stroke="none"/>
    </g>
    <g text-rendering="geometricPrecision" stroke-miterlimit="1.45" shape-rendering="geometricPrecision" font-family="sans-serif" transform="matrix(1,0,0,1,-480,60)" stroke-linecap="butt">
      <text x="814.1631" xml:space="preserve" y="154.7139" clip-path="url(#clipPath2)" stroke="none">7</text>
      <rect fill="none" x="802.5" width="30" height="30" y="135" clip-path="url(#clipPath2)"/>
    </g>
    <g fill="silver" text-rendering="geometricPrecision" shape-rendering="geometricPrecision" transform="matrix(1,0,0,1,-480,60)" stroke="silver">
      <path d="M802.5 165 L1042.5 165 L982.5 195 L862.5 195 Z" fill-rule="evenodd" clip-path="url(#clipPath2)" stroke="none"/>
    </g>
    <g text-rendering="geometricPrecision" stroke-miterlimit="1.45" shape-rendering="geometricPrecision" font-family="sans-serif" transform="matrix(1,0,0,1,-480,60)" stroke-linecap="butt">
      <text x="917.168" xml:space="preserve" y="184.7139" clip-path="url(#clipPath2)" stroke="none">IF</text>
      <path fill="none" d="M802.5 165 L1042.5 165 L982.5 195 L862.5 195 Z" clip-path="url(#clipPath2)" fill-rule="evenodd"/>
    </g>
    <g fill="rgb(255,204,153)" text-rendering="geometricPrecision" shape-rendering="geometricPrecision" transform="matrix(1,0,0,1,-480,60)" stroke="rgb(255,204,153)">
      <rect x="652.5" width="15" height="50" y="197.5" clip-path="url(#clipPath2)" stroke="none"/>
    </g>
    <g text-rendering="geometricPrecision" stroke-miterlimit="1.45" shape-rendering="geometricPrecision" font-family="sans-serif" transform="matrix(1,0,0,1,-480,60)" stroke-linecap="butt">
      <text x="655.667" xml:space="preserve" y="227.2139" clip-path="url(#clipPath2)" stroke="none">R</text>
      <rect fill="none" x="652.5" width="15" height="50" y="197.5" clip-path="url(#clipPath2)"/>
    </g>
    <g fill="rgb(255,204,153)" text-rendering="geometricPrecision" shape-rendering="geometricPrecision" transform="matrix(1,0,0,1,-480,60)" stroke="rgb(255,204,153)">
      <rect x="602.5" width="15" height="50" y="197.5" clip-path="url(#clipPath2)" stroke="none"/>
    </g>
    <g text-rendering="geometricPrecision" stroke-miterlimit="1.45" shape-rendering="geometricPrecision" font-family="sans-serif" transform="matrix(1,0,0,1,-480,60)" stroke-linecap="butt">
      <text x="605.667" xml:space="preserve" y="227.2139" clip-path="url(#clipPath2)" stroke="none">R</text>
      <rect fill="none" x="602.5" width="15" height="50" y="197.5" clip-path="url(#clipPath2)"/>
    </g>
    <g fill="rgb(255,204,153)" text-rendering="geometricPrecision" shape-rendering="geometricPrecision" transform="matrix(1,0,0,1,-480,60)" stroke="rgb(255,204,153)">
      <rect x="752.5" width="15" height="50" y="197.5" clip-path="url(#clipPath2)" stroke="none"/>
    </g>
    <g text-rendering="geometricPrecision" stroke-miterlimit="1.45" shape-rendering="geometricPrecision" font-family="sans-serif" transform="matrix(1,0,0,1,-480,60)" stroke-linecap="butt">
      <text x="755.667" xml:space="preserve" y="227.2139" clip-path="url(#clipPath2)" stroke="none">R</text>
      <rect fill="none" x="752.5" width="15" height="50" y="197.5" clip-path="url(#clipPath2)"/>
    </g>
    <g fill="yellow" text-rendering="geometricPrecision" shape-rendering="geometricPrecision" transform="matrix(1,0,0,1,-480,60)" stroke="yellow">
      <circle r="17.5" clip-path="url(#clipPath2)" cx="760" cy="150" stroke="none"/>
    </g>
    <g text-rendering="geometricPrecision" stroke-miterlimit="1.45" shape-rendering="geometricPrecision" font-family="sans-serif" transform="matrix(1,0,0,1,-480,60)" stroke-linecap="butt">
      <text x="745.9932" xml:space="preserve" y="154.7139" clip-path="url(#clipPath2)" stroke="none">Right</text>
      <circle fill="none" r="17.5" clip-path="url(#clipPath2)" cx="760" cy="150"/>
    </g>
    <g fill="yellow" text-rendering="geometricPrecision" shape-rendering="geometricPrecision" transform="matrix(1,0,0,1,-480,60)" stroke="yellow">
      <circle r="17.5" clip-path="url(#clipPath2)" cx="710" cy="150" stroke="none"/>
    </g>
    <g text-rendering="geometricPrecision" stroke-miterlimit="1.45" shape-rendering="geometricPrecision" font-family="sans-serif" transform="matrix(1,0,0,1,-480,60)" stroke-linecap="butt">
      <text x="699.9922" xml:space="preserve" y="154.7139" clip-path="url(#clipPath2)" stroke="none">Left</text>
      <circle fill="none" r="17.5" clip-path="url(#clipPath2)" cx="710" cy="150"/>
    </g>
    <g fill="lime" text-rendering="geometricPrecision" shape-rendering="geometricPrecision" transform="matrix(1,0,0,1,-480,60)" stroke="lime">
      <circle r="15" clip-path="url(#clipPath2)" cx="812.5" cy="232.5" stroke="none"/>
    </g>
    <g text-rendering="geometricPrecision" stroke-miterlimit="1.45" shape-rendering="geometricPrecision" font-family="sans-serif" transform="matrix(1,0,0,1,-480,60)" stroke-linecap="butt">
      <text x="809.1631" xml:space="preserve" y="237.2139" clip-path="url(#clipPath2)" stroke="none">1</text>
      <circle fill="none" r="15" clip-path="url(#clipPath2)" cx="812.5" cy="232.5"/>
    </g>
    <g fill="yellow" text-rendering="geometricPrecision" shape-rendering="geometricPrecision" transform="matrix(1,0,0,1,-480,60)" stroke="yellow">
      <circle r="17.5" clip-path="url(#clipPath2)" cx="660" cy="150" stroke="none"/>
    </g>
    <g text-rendering="geometricPrecision" stroke-miterlimit="1.45" shape-rendering="geometricPrecision" font-family="sans-serif" transform="matrix(1,0,0,1,-480,60)" stroke-linecap="butt">
      <text x="652.3301" xml:space="preserve" y="154.7139" clip-path="url(#clipPath2)" stroke="none">Up</text>
      <circle fill="none" r="17.5" clip-path="url(#clipPath2)" cx="660" cy="150"/>
    </g>
    <g fill="yellow" text-rendering="geometricPrecision" shape-rendering="geometricPrecision" transform="matrix(1,0,0,1,-480,60)" stroke="yellow">
      <circle r="17.5" clip-path="url(#clipPath2)" cx="610" cy="150" stroke="none"/>
    </g>
    <g text-rendering="geometricPrecision" stroke-miterlimit="1.45" shape-rendering="geometricPrecision" font-family="sans-serif" transform="matrix(1,0,0,1,-480,60)" stroke-linecap="butt">
      <text x="594.6602" xml:space="preserve" y="154.7139" clip-path="url(#clipPath2)" stroke="none">Down</text>
      <circle fill="none" r="17.5" clip-path="url(#clipPath2)" cx="610" cy="150"/>
    </g>
    <g fill="yellow" text-rendering="geometricPrecision" shape-rendering="geometricPrecision" transform="matrix(1,0,0,1,-480,60)" stroke="yellow">
      <circle r="17.5" clip-path="url(#clipPath2)" cx="760" cy="90" stroke="none"/>
    </g>
    <g text-rendering="geometricPrecision" stroke-miterlimit="1.45" shape-rendering="geometricPrecision" font-family="sans-serif" transform="matrix(1,0,0,1,-480,60)" stroke-linecap="butt">
      <text x="755.998" xml:space="preserve" y="94.7139" clip-path="url(#clipPath2)" stroke="none">A</text>
      <circle fill="none" r="17.5" clip-path="url(#clipPath2)" cx="760" cy="90"/>
    </g>
    <g fill="yellow" text-rendering="geometricPrecision" shape-rendering="geometricPrecision" transform="matrix(1,0,0,1,-480,60)" stroke="yellow">
      <circle r="17.5" clip-path="url(#clipPath2)" cx="710" cy="90" stroke="none"/>
    </g>
    <g text-rendering="geometricPrecision" stroke-miterlimit="1.45" shape-rendering="geometricPrecision" font-family="sans-serif" transform="matrix(1,0,0,1,-480,60)" stroke-linecap="butt">
      <text x="705.998" xml:space="preserve" y="94.7139" clip-path="url(#clipPath2)" stroke="none">B</text>
      <circle fill="none" r="17.5" clip-path="url(#clipPath2)" cx="710" cy="90"/>
    </g>
    <g fill="yellow" text-rendering="geometricPrecision" shape-rendering="geometricPrecision" transform="matrix(1,0,0,1,-480,60)" stroke="yellow">
      <circle r="17.5" clip-path="url(#clipPath2)" cx="660" cy="90" stroke="none"/>
    </g>
    <g text-rendering="geometricPrecision" stroke-miterlimit="1.45" shape-rendering="geometricPrecision" font-family="sans-serif" transform="matrix(1,0,0,1,-480,60)" stroke-linecap="butt">
      <text x="643.3242" xml:space="preserve" y="94.7139" clip-path="url(#clipPath2)" stroke="none">Select</text>
      <circle fill="none" r="17.5" clip-path="url(#clipPath2)" cx="660" cy="90"/>
    </g>
    <g fill="yellow" text-rendering="geometricPrecision" shape-rendering="geometricPrecision" transform="matrix(1,0,0,1,-480,60)" stroke="yellow">
      <circle r="17.5" clip-path="url(#clipPath2)" cx="610" cy="90" stroke="none"/>
    </g>
    <g text-rendering="geometricPrecision" stroke-miterlimit="1.45" shape-rendering="geometricPrecision" font-family="sans-serif" transform="matrix(1,0,0,1,-480,60)" stroke-linecap="butt">
      <text x="597.3291" xml:space="preserve" y="94.7139" clip-path="url(#clipPath2)" stroke="none">Start</text>
      <circle fill="none" r="17.5" clip-path="url(#clipPath2)" cx="610" cy="90"/>
    </g>
    <g fill="rgb(204,255,255)" text-rendering="geometricPrecision" shape-rendering="geometricPrecision" transform="matrix(1,0,0,1,-480,60)" stroke="rgb(204,255,255)">
      <rect x="877.5" width="60" height="60" y="30" clip-path="url(#clipPath2)" stroke="none"/>
    </g>
    <g text-rendering="geometricPrecision" stroke-miterlimit="1.45" shape-rendering="geometricPrecision" font-family="sans-serif" transform="matrix(1,0,0,1,-480,60)" stroke-linecap="butt">
      <text x="889.8252" xml:space="preserve" y="50.0127" clip-path="url(#clipPath2)" stroke="none">Falling</text>
      <text x="894.1523" xml:space="preserve" y="64.7139" clip-path="url(#clipPath2)" stroke="none">edge</text>
      <text x="885.8203" xml:space="preserve" y="79.415" clip-path="url(#clipPath2)" stroke="none">detector</text>
      <rect x="877.5" y="30" clip-path="url(#clipPath2)" fill="none" width="60" stroke-dasharray="12,4" height="60" stroke-width="2"/>
    </g>
    <g fill="aqua" text-rendering="geometricPrecision" shape-rendering="geometricPrecision" transform="matrix(1,0,0,1,-480,60)" stroke="aqua">
      <rect x="990" width="30" height="30" y="45" clip-path="url(#clipPath2)" stroke="none"/>
    </g>
    <g text-rendering="geometricPrecision" stroke-miterlimit="1.45" shape-rendering="geometricPrecision" font-family="sans-serif" transform="matrix(1,0,0,1,-480,60)" stroke-linecap="butt">
      <text x="992.332" xml:space="preserve" y="64.7139" clip-path="url(#clipPath2)" stroke="none">AND</text>
      <rect fill="none" x="990" width="30" height="30" y="45" clip-path="url(#clipPath2)"/>
    </g>
    <g fill="white" text-rendering="geometricPrecision" shape-rendering="geometricPrecision" transform="matrix(1,0,0,1,-480,60)" stroke="white">
      <rect x="1035" width="30" height="30" y="-15" clip-path="url(#clipPath2)" stroke="none"/>
    </g>
    <g text-rendering="geometricPrecision" stroke-miterlimit="1.45" shape-rendering="geometricPrecision" font-family="sans-serif" transform="matrix(1,0,0,1,-480,60)" stroke-linecap="butt">
      <text x="1046.6631" xml:space="preserve" y="4.7139" clip-path="url(#clipPath2)" stroke="none">0</text>
      <rect fill="none" x="1035" width="30" height="30" y="-15" clip-path="url(#clipPath2)"/>
    </g>
    <g fill="white" text-rendering="geometricPrecision" shape-rendering="geometricPrecision" transform="matrix(1,0,0,1,-480,60)" stroke="white">
      <rect x="1005" width="30" height="30" y="-15" clip-path="url(#clipPath2)" stroke="none"/>
    </g>
    <g text-rendering="geometricPrecision" stroke-miterlimit="1.45" shape-rendering="geometricPrecision" font-family="sans-serif" transform="matrix(1,0,0,1,-480,60)" stroke-linecap="butt">
      <text x="1016.6631" xml:space="preserve" y="4.7139" clip-path="url(#clipPath2)" stroke="none">1</text>
      <rect fill="none" x="1005" width="30" height="30" y="-15" clip-path="url(#clipPath2)"/>
    </g>
    <g fill="white" text-rendering="geometricPrecision" shape-rendering="geometricPrecision" transform="matrix(1,0,0,1,-480,60)" stroke="white">
      <rect x="975" width="30" height="30" y="-15" clip-path="url(#clipPath2)" stroke="none"/>
    </g>
    <g text-rendering="geometricPrecision" stroke-miterlimit="1.45" shape-rendering="geometricPrecision" font-family="sans-serif" transform="matrix(1,0,0,1,-480,60)" stroke-linecap="butt">
      <text x="986.6631" xml:space="preserve" y="4.7139" clip-path="url(#clipPath2)" stroke="none">2</text>
      <rect fill="none" x="975" width="30" height="30" y="-15" clip-path="url(#clipPath2)"/>
    </g>
    <g fill="white" text-rendering="geometricPrecision" shape-rendering="geometricPrecision" transform="matrix(1,0,0,1,-480,60)" stroke="white">
      <rect x="945" width="30" height="30" y="-15" clip-path="url(#clipPath2)" stroke="none"/>
    </g>
    <g text-rendering="geometricPrecision" stroke-miterlimit="1.45" shape-rendering="geometricPrecision" font-family="sans-serif" transform="matrix(1,0,0,1,-480,60)" stroke-linecap="butt">
      <text x="956.6631" xml:space="preserve" y="4.7139" clip-path="url(#clipPath2)" stroke="none">3</text>
      <rect fill="none" x="945" width="30" height="30" y="-15" clip-path="url(#clipPath2)"/>
    </g>
    <g fill="white" text-rendering="geometricPrecision" shape-rendering="geometricPrecision" transform="matrix(1,0,0,1,-480,60)" stroke="white">
      <rect x="915" width="30" height="30" y="-15" clip-path="url(#clipPath2)" stroke="none"/>
    </g>
    <g text-rendering="geometricPrecision" stroke-miterlimit="1.45" shape-rendering="geometricPrecision" font-family="sans-serif" transform="matrix(1,0,0,1,-480,60)" stroke-linecap="butt">
      <text x="926.6631" xml:space="preserve" y="4.7139" clip-path="url(#clipPath2)" stroke="none">4</text>
      <rect fill="none" x="915" width="30" height="30" y="-15" clip-path="url(#clipPath2)"/>
    </g>
    <g fill="white" text-rendering="geometricPrecision" shape-rendering="geometricPrecision" transform="matrix(1,0,0,1,-480,60)" stroke="white">
      <rect x="885" width="30" height="30" y="-15" clip-path="url(#clipPath2)" stroke="none"/>
    </g>
    <g text-rendering="geometricPrecision" stroke-miterlimit="1.45" shape-rendering="geometricPrecision" font-family="sans-serif" transform="matrix(1,0,0,1,-480,60)" stroke-linecap="butt">
      <text x="896.6631" xml:space="preserve" y="4.7139" clip-path="url(#clipPath2)" stroke="none">5</text>
      <rect fill="none" x="885" width="30" height="30" y="-15" clip-path="url(#clipPath2)"/>
    </g>
    <g fill="white" text-rendering="geometricPrecision" shape-rendering="geometricPrecision" transform="matrix(1,0,0,1,-480,60)" stroke="white">
      <rect x="855" width="30" height="30" y="-15" clip-path="url(#clipPath2)" stroke="none"/>
    </g>
    <g text-rendering="geometricPrecision" stroke-miterlimit="1.45" shape-rendering="geometricPrecision" font-family="sans-serif" transform="matrix(1,0,0,1,-480,60)" stroke-linecap="butt">
      <text x="866.6631" xml:space="preserve" y="4.7139" clip-path="url(#clipPath2)" stroke="none">6</text>
      <rect fill="none" x="855" width="30" height="30" y="-15" clip-path="url(#clipPath2)"/>
    </g>
    <g fill="white" text-rendering="geometricPrecision" shape-rendering="geometricPrecision" transform="matrix(1,0,0,1,-480,60)" stroke="white">
      <rect x="825" width="30" height="30" y="-15" clip-path="url(#clipPath2)" stroke="none"/>
    </g>
    <g text-rendering="geometricPrecision" stroke-miterlimit="1.45" shape-rendering="geometricPrecision" font-family="sans-serif" transform="matrix(1,0,0,1,-480,60)" stroke-linecap="butt">
      <text x="836.6631" xml:space="preserve" y="4.7139" clip-path="url(#clipPath2)" stroke="none">7</text>
      <rect fill="none" x="825" width="30" height="30" y="-15" clip-path="url(#clipPath2)"/>
    </g>
    <g fill="silver" text-rendering="geometricPrecision" shape-rendering="geometricPrecision" transform="matrix(1,0,0,1,-480,60)" stroke="silver">
      <path d="M825 -15 L885 -45 L1005 -45 L1065 -15 Z" fill-rule="evenodd" clip-path="url(#clipPath2)" stroke="none"/>
    </g>
    <g text-rendering="geometricPrecision" stroke-miterlimit="1.45" shape-rendering="geometricPrecision" font-family="sans-serif" transform="matrix(1,0,0,1,-480,60)" stroke-linecap="butt">
      <text x="937.6611" xml:space="preserve" y="-25.2861" clip-path="url(#clipPath2)" stroke="none">P1</text>
      <path fill="none" d="M825 -15 L885 -45 L1005 -45 L1065 -15 Z" clip-path="url(#clipPath2)" fill-rule="evenodd"/>
      <path fill="none" stroke-dasharray="6,2" d="M760 197.5 L760 167.5" clip-path="url(#clipPath2)"/>
      <path fill="none" d="M742.5 150 L727.5 150" clip-path="url(#clipPath2)"/>
      <path fill="none" stroke-dasharray="6,2" d="M710 197.5 L710 167.5" clip-path="url(#clipPath2)"/>
      <path fill="none" d="M610 247.5 L610 270 L812.5 270 L812.5 247.5" clip-path="url(#clipPath2)"/>
      <path fill="none" d="M660 247.5 L660 270 L812.5 270 L812.5 247.5" clip-path="url(#clipPath2)"/>
      <path fill="none" d="M710 247.5 L710 270 L812.5 270 L812.5 247.5" clip-path="url(#clipPath2)"/>
      <path fill="none" d="M760 247.5 L760 270 L812.5 270 L812.5 247.5" clip-path="url(#clipPath2)"/>
      <path fill="none" d="M692.5 150 L677.5 150" clip-path="url(#clipPath2)"/>
      <path fill="none" stroke-dasharray="6,2" d="M660 197.5 L660 167.5" clip-path="url(#clipPath2)"/>
      <path fill="none" d="M570 15 L570 20 L540 50 L540 120 L570 150 L584.5 150" clip-path="url(#clipPath2)"/>
      <path d="M592.5 150 L580.5 145 L583.5 150 L580.5 155 Z" clip-path="url(#clipPath2)" stroke="none"/>
      <path fill="none" d="M642.5 150 L627.5 150" clip-path="url(#clipPath2)"/>
      <path fill="none" stroke-dasharray="6,2" d="M610 197.5 L610 167.5" clip-path="url(#clipPath2)"/>
      <path fill="none" stroke-dasharray="6,2" d="M760 107.5 L760 132.5" clip-path="url(#clipPath2)"/>
      <path fill="none" stroke-dasharray="6,2" d="M760 72.5 L760 60 L749.9476 50 L740 50 L720 30 L720 23" clip-path="url(#clipPath2)"/>
      <path stroke-dasharray="6,2" d="M720 15 L715 27 L720 24 L725 27 Z" clip-path="url(#clipPath2)" stroke="none"/>
      <path fill="none" d="M742.5 90 L727.5 90" clip-path="url(#clipPath2)"/>
      <path fill="none" stroke-dasharray="6,2" d="M710 107.5 L710 132.5" clip-path="url(#clipPath2)"/>
      <path fill="none" stroke-dasharray="6,2" d="M710 72.5 L710 60 L690 40 L690 23" clip-path="url(#clipPath2)"/>
      <path stroke-dasharray="6,2" d="M690 15 L685 27 L690 24 L695 27 Z" clip-path="url(#clipPath2)" stroke="none"/>
      <path fill="none" d="M692.5 90 L677.5 90" clip-path="url(#clipPath2)"/>
      <path fill="none" stroke-dasharray="6,2" d="M660 107.5 L660 132.5" clip-path="url(#clipPath2)"/>
      <path fill="none" stroke-dasharray="6,2" d="M660 72.5 L660 23" clip-path="url(#clipPath2)"/>
      <path stroke-dasharray="6,2" d="M660 15 L655 27 L660 24 L665 27 Z" clip-path="url(#clipPath2)" stroke="none"/>
      <path fill="none" d="M642.5 90 L627.5 90" clip-path="url(#clipPath2)"/>
      <path fill="none" d="M600 15 L600 30 L570 60 L570 80 L580 90 L590 90 L592.5 90" clip-path="url(#clipPath2)"/>
      <path d="M592.5 90 L580.5 85 L583.5 90 L580.5 95 Z" clip-path="url(#clipPath2)" stroke="none"/>
      <path fill="none" stroke-dasharray="6,2" d="M610 107.5 L610 132.5" clip-path="url(#clipPath2)"/>
      <path fill="none" stroke-dasharray="6,2" d="M610 72.5 L610 60 L630 40 L630 23" clip-path="url(#clipPath2)"/>
      <path stroke-dasharray="6,2" d="M630 15 L625 27 L630 24 L635 27 Z" clip-path="url(#clipPath2)" stroke="none"/>
      <path fill="none" d="M907.5 90 L907.5 127" clip-path="url(#clipPath2)"/>
      <path d="M907.5 135 L912.5 123 L907.5 126 L902.5 123 Z" clip-path="url(#clipPath2)" stroke="none"/>
      <path fill="none" d="M990 60 L945.5 60" clip-path="url(#clipPath2)"/>
      <path d="M937.5 60 L949.5 65 L946.5 60 L949.5 55 Z" clip-path="url(#clipPath2)" stroke="none"/>
      <path fill="none" d="M1050 15 L1050 30 L1026.6564 45.5624" clip-path="url(#clipPath2)"/>
      <path d="M1020 50 L1032.7581 47.5038 L1027.4884 45.0077 L1027.2111 39.1833 Z" clip-path="url(#clipPath2)" stroke="none"/>
      <path fill="none" d="M1020 15 L1020 30 L1016.0777 37.8446" clip-path="url(#clipPath2)"/>
      <path d="M1012.5 45 L1022.3387 36.5029 L1016.5249 36.9502 L1013.3944 32.0308 Z" clip-path="url(#clipPath2)" stroke="none"/>
      <path fill="none" d="M990 15 L990 30 L993.9223 37.8446" clip-path="url(#clipPath2)"/>
      <path d="M997.5 45 L996.6056 32.0308 L993.4751 36.9502 L987.6613 36.5029 Z" clip-path="url(#clipPath2)" stroke="none"/>
      <path fill="none" d="M960 15 L960 30 L983.3436 45.5624" clip-path="url(#clipPath2)"/>
      <path d="M990 50 L982.7889 39.1833 L982.5115 45.0077 L977.2419 47.5038 Z" clip-path="url(#clipPath2)" stroke="none"/>
    </g>
    <g stroke-linecap="round" transform="matrix(1,0,0,1,-480,60)" stroke-dashoffset="2" text-rendering="geometricPrecision" shape-rendering="geometricPrecision" stroke-dasharray="0,4" stroke-miterlimit="1.45">
      <path fill="none" d="M705.033 -30 L854.9831 -30" clip-path="url(#clipPath2)"/>
    </g>
  </g>
</svg>
